  0
SECTION
  2
HEADER
  9
$ACADVER
  1
AC1015
  9
$ACADMAINTVER
 70
     6
  9
$DWGCODEPAGE
  3
ANSI_1252
  9
$INSBASE
 10
0.0
 20
0.0
 30
0.0
  9
$EXTMIN
 10
-2.4366852999
 20
-1.0060461969
 30
0.0
  9
$EXTMAX
 10
0.2833511291
 20
-0.6524456447
 30
0.0
  9
$LIMMIN
 10
0.0
 20
0.0
  9
$LIMMAX
 10
12.0
 20
9.0
  9
$ORTHOMODE
 70
     0
  9
$REGENMODE
 70
     1
  9
$FILLMODE
 70
     1
  9
$QTEXTMODE
 70
     0
  9
$MIRRTEXT
 70
     1
  9
$LTSCALE
 40
1.0
  9
$ATTMODE
 70
     1
  9
$TEXTSIZE
 40
0.1944444444
  9
$TRACEWID
 40
0.05
  9
$TEXTSTYLE
  7
Standard
  9
$CLAYER
  8
0
  9
$CELTYPE
  6
ByLayer
  9
$CECOLOR
 62
   256
  9
$CELTSCALE
 40
1.0
  9
$DISPSILH
 70
     0
  9
$DIMSCALE
 40
1.0
  9
$DIMASZ
 40
0.188
  9
$DIMEXO
 40
0.05
  9
$DIMDLI
 40
0.38
  9
$DIMRND
 40
0.0
  9
$DIMDLE
 40
0.0
  9
$DIMEXE
 40
0.125
  9
$DIMTP
 40
0.0
  9
$DIMTM
 40
0.0
  9
$DIMTXT
 40
0.1944444444
  9
$DIMCEN
 40
0.09
  9
$DIMTSZ
 40
0.0
  9
$DIMTOL
 70
     0
  9
$DIMLIM
 70
     0
  9
$DIMTIH
 70
     1
  9
$DIMTOH
 70
     1
  9
$DIMSE1
 70
     0
  9
$DIMSE2
 70
     0
  9
$DIMTAD
 70
     0
  9
$DIMZIN
 70
     1
  9
$DIMBLK
  1

  9
$DIMASO
 70
     1
  9
$DIMSHO
 70
     1
  9
$DIMPOST
  1

  9
$DIMAPOST
  1

  9
$DIMALT
 70
     0
  9
$DIMALTD
 70
     2
  9
$DIMALTF
 40
25.4
  9
$DIMLFAC
 40
1.0
  9
$DIMTOFL
 70
     0
  9
$DIMTVP
 40
0.0
  9
$DIMTIX
 70
     0
  9
$DIMSOXD
 70
     0
  9
$DIMSAH
 70
     0
  9
$DIMBLK1
  1

  9
$DIMBLK2
  1

  9
$DIMSTYLE
  2
Standard
  9
$DIMCLRD
 70
     0
  9
$DIMCLRE
 70
     0
  9
$DIMCLRT
 70
     0
  9
$DIMTFAC
 40
1.0
  9
$DIMGAP
 40
0.06
  9
$DIMJUST
 70
     0
  9
$DIMSD1
 70
     0
  9
$DIMSD2
 70
     0
  9
$DIMTOLJ
 70
     1
  9
$DIMTZIN
 70
     1
  9
$DIMALTZ
 70
     0
  9
$DIMALTTZ
 70
     0
  9
$DIMUPT
 70
     0
  9
$DIMDEC
 70
     3
  9
$DIMTDEC
 70
     2
  9
$DIMALTU
 70
     2
  9
$DIMALTTD
 70
     2
  9
$DIMTXSTY
  7
Standard
  9
$DIMAUNIT
 70
     0
  9
$DIMADEC
 70
     1
  9
$DIMALTRND
 40
0.0
  9
$DIMAZIN
 70
     0
  9
$DIMDSEP
 70
    46
  9
$DIMATFIT
 70
     3
  9
$DIMFRAC
 70
     0
  9
$DIMLDRBLK
  1

  9
$DIMLUNIT
 70
     2
  9
$DIMLWD
 70
    -2
  9
$DIMLWE
 70
    -2
  9
$DIMTMOVE
 70
     0
  9
$LUNITS
 70
     2
  9
$LUPREC
 70
     3
  9
$SKETCHINC
 40
0.1
  9
$FILLETRAD
 40
0.5
  9
$AUNITS
 70
     0
  9
$AUPREC
 70
     1
  9
$MENU
  1
.
  9
$ELEVATION
 40
0.0
  9
$PELEVATION
 40
0.0
  9
$THICKNESS
 40
0.0
  9
$LIMCHECK
 70
     0
  9
$CHAMFERA
 40
0.0
  9
$CHAMFERB
 40
0.0
  9
$CHAMFERC
 40
0.0
  9
$CHAMFERD
 40
0.0
  9
$SKPOLY
 70
     0
  9
$TDCREATE
 40
2458948.874821562
  9
$TDUCREATE
 40
2458949.041488229
  9
$TDUPDATE
 40
2458948.874870336
  9
$TDUUPDATE
 40
2458949.041537002
  9
$TDINDWG
 40
0.0000000116
  9
$TDUSRTIMER
 40
0.0000000116
  9
$USRTIMER
 70
     1
  9
$ANGBASE
 50
0.0
  9
$ANGDIR
 70
     0
  9
$PDMODE
 70
     0
  9
$PDSIZE
 40
-1.0
  9
$PLINEWID
 40
0.0
  9
$SPLFRAME
 70
     0
  9
$SPLINETYPE
 70
     6
  9
$SPLINESEGS
 70
     8
  9
$HANDSEED
  5
149
  9
$SURFTAB1
 70
     6
  9
$SURFTAB2
 70
     6
  9
$SURFTYPE
 70
     6
  9
$SURFU
 70
     6
  9
$SURFV
 70
     6
  9
$UCSBASE
  2

  9
$UCSNAME
  2

  9
$UCSORG
 10
0.0
 20
0.0
 30
0.0
  9
$UCSXDIR
 10
1.0
 20
0.0
 30
0.0
  9
$UCSYDIR
 10
0.0
 20
1.0
 30
0.0
  9
$UCSORTHOREF
  2

  9
$UCSORTHOVIEW
 70
     0
  9
$UCSORGTOP
 10
0.0
 20
0.0
 30
0.0
  9
$UCSORGBOTTOM
 10
0.0
 20
0.0
 30
0.0
  9
$UCSORGLEFT
 10
0.0
 20
0.0
 30
0.0
  9
$UCSORGRIGHT
 10
0.0
 20
0.0
 30
0.0
  9
$UCSORGFRONT
 10
0.0
 20
0.0
 30
0.0
  9
$UCSORGBACK
 10
0.0
 20
0.0
 30
0.0
  9
$PUCSBASE
  2

  9
$PUCSNAME
  2

  9
$PUCSORG
 10
0.0
 20
0.0
 30
0.0
  9
$PUCSXDIR
 10
1.0
 20
0.0
 30
0.0
  9
$PUCSYDIR
 10
0.0
 20
1.0
 30
0.0
  9
$PUCSORTHOREF
  2

  9
$PUCSORTHOVIEW
 70
     0
  9
$PUCSORGTOP
 10
0.0
 20
0.0
 30
0.0
  9
$PUCSORGBOTTOM
 10
0.0
 20
0.0
 30
0.0
  9
$PUCSORGLEFT
 10
0.0
 20
0.0
 30
0.0
  9
$PUCSORGRIGHT
 10
0.0
 20
0.0
 30
0.0
  9
$PUCSORGFRONT
 10
0.0
 20
0.0
 30
0.0
  9
$PUCSORGBACK
 10
0.0
 20
0.0
 30
0.0
  9
$USERI1
 70
     0
  9
$USERI2
 70
     0
  9
$USERI3
 70
     0
  9
$USERI4
 70
     0
  9
$USERI5
 70
     0
  9
$USERR1
 40
0.0
  9
$USERR2
 40
0.0
  9
$USERR3
 40
0.0
  9
$USERR4
 40
0.0
  9
$USERR5
 40
0.0
  9
$WORLDVIEW
 70
     1
  9
$SHADEDGE
 70
     3
  9
$SHADEDIF
 70
    70
  9
$TILEMODE
 70
     1
  9
$MAXACTVP
 70
    64
  9
$PINSBASE
 10
0.0
 20
0.0
 30
0.0
  9
$PLIMCHECK
 70
     0
  9
$PEXTMIN
 10
1.0000000000E+20
 20
1.0000000000E+20
 30
1.0000000000E+20
  9
$PEXTMAX
 10
-1.0000000000E+20
 20
-1.0000000000E+20
 30
-1.0000000000E+20
  9
$PLIMMIN
 10
0.0
 20
0.0
  9
$PLIMMAX
 10
12.0
 20
9.0
  9
$UNITMODE
 70
     0
  9
$VISRETAIN
 70
     1
  9
$PLINEGEN
 70
     0
  9
$PSLTSCALE
 70
     1
  9
$TREEDEPTH
 70
  3020
  9
$CMLSTYLE
  2
Standard
  9
$CMLJUST
 70
     0
  9
$CMLSCALE
 40
1.0
  9
$PROXYGRAPHICS
 70
     1
  9
$MEASUREMENT
 70
     0
  9
$CELWEIGHT
370
    -1
  9
$ENDCAPS
280
     0
  9
$JOINSTYLE
280
     0
  9
$LWDISPLAY
290
     1
  9
$INSUNITS
 70
     1
  9
$HYPERLINKBASE
  1

  9
$STYLESHEET
  1

  9
$XEDIT
290
     1
  9
$CEPSNTYPE
380
     0
  9
$PSTYLEMODE
290
     1
  9
$FINGERPRINTGUID
  2
{7ba3c123-29f8-4c18-9f41-1bb37e98f9f2}
  9
$VERSIONGUID
  2
{FAEB1C32-E019-11D5-929B-00C0DF256EC4}
  9
$EXTNAMES
290
     1
  9
$PSVPSCALE
 40
0.0
  9
$OLESTARTUP
290
     0
  0
ENDSEC
  0
SECTION
  2
CLASSES
  0
CLASS
  1
ACDBDICTIONARYWDFLT
  2
AcDbDictionaryWithDefault
  3
ObjectDBX Classes
 90
        0
280
     0
281
     0
  0
CLASS
  1
VISUALSTYLE
  2
AcDbVisualStyle
  3
ObjectDBX Classes
 90
     4095
280
     0
281
     0
  0
CLASS
  1
MATERIAL
  2
AcDbMaterial
  3
ObjectDBX Classes
 90
     1153
280
     0
281
     0
  0
CLASS
  1
SCALE
  2
AcDbScale
  3
ObjectDBX Classes
 90
     1153
280
     0
281
     0
  0
CLASS
  1
TABLESTYLE
  2
AcDbTableStyle
  3
ObjectDBX Classes
 90
     4095
280
     0
281
     0
  0
CLASS
  1
MLEADERSTYLE
  2
AcDbMLeaderStyle
  3
ACDB_MLEADERSTYLE_CLASS
 90
     4095
280
     0
281
     0
  0
CLASS
  1
SUN
  2
AcDbSun
  3
SCENEOE
 90
     1153
280
     0
281
     0
  0
CLASS
  1
ACDBPLACEHOLDER
  2
AcDbPlaceHolder
  3
ObjectDBX Classes
 90
        0
280
     0
281
     0
  0
CLASS
  1
LAYOUT
  2
AcDbLayout
  3
ObjectDBX Classes
 90
        0
280
     0
281
     0
  0
ENDSEC
  0
SECTION
  2
TABLES
  0
TABLE
  2
VPORT
  5
8
330
0
100
AcDbSymbolTable
 70
     1
  0
VPORT
  5
29
330
8
100
AcDbSymbolTableRecord
100
AcDbViewportTableRecord
  2
*Active
 70
     0
 10
0.0
 20
0.0
 11
1.0
 21
1.0
 12
-1.0766670854
 22
-0.8292459208
 13
0.0
 23
0.0
 14
0.5
 24
0.5
 15
0.5
 25
0.5
 16
0.0
 26
0.0
 36
1.0
 17
0.0
 27
0.0
 37
0.0
 40
0.3606725632
 41
7.6923987025
 42
50.0
 43
0.0
 44
0.0
 50
0.0
 51
0.0
 71
     0
 72
   100
 73
     1
 74
     3
 75
     0
 76
     0
 77
     0
 78
     0
281
     0
 65
     1
110
0.0
120
0.0
130
0.0
111
1.0
121
0.0
131
0.0
112
0.0
122
1.0
132
0.0
 79
     0
146
0.0
  0
ENDTAB
  0
TABLE
  2
LTYPE
  5
5
330
0
100
AcDbSymbolTable
 70
     6
  0
LTYPE
  5
14
330
5
100
AcDbSymbolTableRecord
100
AcDbLinetypeTableRecord
  2
ByBlock
 70
     0
  3

 72
    65
 73
     0
 40
0.0
  0
LTYPE
  5
15
330
5
100
AcDbSymbolTableRecord
100
AcDbLinetypeTableRecord
  2
ByLayer
 70
     0
  3

 72
    65
 73
     0
 40
0.0
  0
LTYPE
  5
16
330
5
100
AcDbSymbolTableRecord
100
AcDbLinetypeTableRecord
  2
Continuous
 70
     0
  3
Solid line
 72
    65
 73
     0
 40
0.0
  0
LTYPE
  5
6E
330
5
100
AcDbSymbolTableRecord
100
AcDbLinetypeTableRecord
  2
HIDDEN
 70
     0
  3
Hidden __ __ __ __ __ __ __ __ __ __ __ __ __ __
 72
    65
 73
     2
 40
0.075
 49
0.05
 74
     0
 49
-0.025
 74
     0
  0
LTYPE
  5
6F
330
5
100
AcDbSymbolTableRecord
100
AcDbLinetypeTableRecord
  2
PHANTOM
 70
     0
  3
Phantom ______  __  __  ______  __  __  ______
 72
    65
 73
     6
 40
0.5
 49
0.25
 74
     0
 49
-0.05
 74
     0
 49
0.05
 74
     0
 49
-0.05
 74
     0
 49
0.05
 74
     0
 49
-0.05
 74
     0
  0
LTYPE
  5
70
330
5
100
AcDbSymbolTableRecord
100
AcDbLinetypeTableRecord
  2
CENTER
 70
     0
  3
Center ____ _ ____ _ ____ _ ____ _ ____ _ ____
 72
    65
 73
     4
 40
0.4
 49
0.25
 74
     0
 49
-0.05
 74
     0
 49
0.05
 74
     0
 49
-0.05
 74
     0
  0
LTYPE
  5
71
330
5
100
AcDbSymbolTableRecord
100
AcDbLinetypeTableRecord
  2
CENTERX2
 70
     0
  3
Center (2x) ________  __  ________  __  _____
 72
    65
 73
     4
 40
0.8
 49
0.5
 74
     0
 49
-0.1
 74
     0
 49
0.1
 74
     0
 49
-0.1
 74
     0
  0
LTYPE
  5
72
330
5
100
AcDbSymbolTableRecord
100
AcDbLinetypeTableRecord
  2
DOT2
 70
     0
  3
Dot (.5x) ........................................
 72
    65
 73
     2
 40
0.025
 49
0.0
 74
     0
 49
-0.025
 74
     0
  0
ENDTAB
  0
TABLE
  2
LAYER
  5
2
330
0
100
AcDbSymbolTable
 70
     1
  0
LAYER
  5
10
330
2
100
AcDbSymbolTableRecord
100
AcDbLayerTableRecord
  2
0
 70
     0
 62
     7
  6
Continuous
370
    -3
390
F
  0
ENDTAB
  0
TABLE
  2
STYLE
  5
3
330
0
100
AcDbSymbolTable
 70
     2
  0
STYLE
  5
11
330
3
100
AcDbSymbolTableRecord
100
AcDbTextStyleTableRecord
  2
Standard
 70
     0
 40
0.0
 41
1.0
 50
0.0
 71
     0
 42
0.1944444444
  3
txt
  4

  0
STYLE
  5
146
330
3
100
AcDbSymbolTableRecord
100
AcDbTextStyleTableRecord
  2
SLDTEXTSTYLE0
 70
     0
 40
0.0
 41
0.7
 50
0.0
 71
     0
 42
0.1944444444
  3
TXT
  4

  0
ENDTAB
  0
TABLE
  2
VIEW
  5
6
330
0
100
AcDbSymbolTable
 70
     0
  0
ENDTAB
  0
TABLE
  2
UCS
  5
7
330
0
100
AcDbSymbolTable
 70
     0
  0
ENDTAB
  0
TABLE
  2
APPID
  5
9
330
0
100
AcDbSymbolTable
 70
     1
  0
APPID
  5
12
330
9
100
AcDbSymbolTableRecord
100
AcDbRegAppTableRecord
  2
ACAD
 70
     0
  0
ENDTAB
  0
TABLE
  2
DIMSTYLE
  5
A
330
0
100
AcDbSymbolTable
 70
     1
100
AcDbDimStyleTable
  0
DIMSTYLE
105
27
330
A
100
AcDbSymbolTableRecord
100
AcDbDimStyleTableRecord
  2
Standard
 70
     0
178
     0
340
11
  0
ENDTAB
  0
TABLE
  2
BLOCK_RECORD
  5
1
330
0
100
AcDbSymbolTable
 70
     1
  0
BLOCK_RECORD
  5
1F
330
1
100
AcDbSymbolTableRecord
100
AcDbBlockTableRecord
  2
*Model_Space
340
22
  0
BLOCK_RECORD
  5
1B
330
1
100
AcDbSymbolTableRecord
100
AcDbBlockTableRecord
  2
*Paper_Space
340
1E
  0
BLOCK_RECORD
  5
23
330
1
100
AcDbSymbolTableRecord
100
AcDbBlockTableRecord
  2
*Paper_Space0
340
26
  0
ENDTAB
  0
ENDSEC
  0
SECTION
  2
BLOCKS
  0
BLOCK
  5
20
330
1F
100
AcDbEntity
  8
0
100
AcDbBlockBegin
  2
*Model_Space
 70
     0
 10
0.0
 20
0.0
 30
0.0
  3
*Model_Space
  1

  0
ENDBLK
  5
21
330
1F
100
AcDbEntity
  8
0
100
AcDbBlockEnd
  0
BLOCK
  5
1C
330
1B
100
AcDbEntity
 67
     1
  8
0
100
AcDbBlockBegin
  2
*Paper_Space
 70
     0
 10
0.0
 20
0.0
 30
0.0
  3
*Paper_Space
  1

  0
ENDBLK
  5
1D
330
1B
100
AcDbEntity
 67
     1
  8
0
100
AcDbBlockEnd
  0
BLOCK
  5
24
330
23
100
AcDbEntity
  8
0
100
AcDbBlockBegin
  2
*Paper_Space0
 70
     0
 10
0.0
 20
0.0
 30
0.0
  3
*Paper_Space0
  1

  0
ENDBLK
  5
25
330
23
100
AcDbEntity
  8
0
100
AcDbBlockEnd
  0
ENDSEC
  0
SECTION
  2
ENTITIES
  0
LINE
  5
73
330
1F
100
AcDbEntity
  8
0
  6
Continuous
 62
     7
370
    25
100
AcDbLine
 10
-2.2282966369
 20
-0.8785325829
 30
0.0
 11
-2.3319751549
 21
-0.8785325829
 31
0.0
  0
LINE
  5
74
330
1F
100
AcDbEntity
  8
0
  6
Continuous
 62
     7
370
    25
100
AcDbLine
 10
-2.3319751549
 20
-0.8785325829
 30
0.0
 11
-2.2798779891
 21
-0.7363263441
 31
0.0
  0
LINE
  5
75
330
1F
100
AcDbEntity
  8
0
  6
Continuous
 62
     7
370
    25
100
AcDbLine
 10
-2.2798779891
 20
-0.7363263441
 30
0.0
 11
-2.2282966369
 21
-0.8785325829
 31
0.0
  0
LINE
  5
76
330
1F
100
AcDbEntity
  8
0
  6
Continuous
 62
     7
370
    25
100
AcDbLine
 10
-2.3938250772
 20
-0.9792776313
 30
0.0
 11
-2.4366852999
 21
-0.9850318545
 31
0.0
  0
LINE
  5
77
330
1F
100
AcDbEntity
  8
0
  6
Continuous
 62
     7
370
    25
100
AcDbLine
 10
-2.4366852999
 20
-0.9850318545
 30
0.0
 11
-2.4366852999
 21
-0.9997282608
 31
0.0
  0
LINE
  5
78
330
1F
100
AcDbEntity
  8
0
  6
Continuous
 62
     7
370
    25
100
AcDbLine
 10
-2.4366852999
 20
-0.9997282608
 30
0.0
 11
-2.3198375154
 21
-0.9997282608
 31
0.0
  0
LINE
  5
79
330
1F
100
AcDbEntity
  8
0
  6
Continuous
 62
     7
370
    25
100
AcDbLine
 10
-2.3198375154
 20
-0.9997282608
 30
0.0
 11
-2.3198375154
 21
-0.9850318545
 31
0.0
  0
LINE
  5
7A
330
1F
100
AcDbEntity
  8
0
  6
Continuous
 62
     7
370
    25
100
AcDbLine
 10
-2.3198375154
 20
-0.9850318545
 30
0.0
 11
-2.3698437622
 21
-0.9792776313
 31
0.0
  0
LINE
  5
7B
330
1F
100
AcDbEntity
  8
0
  6
Continuous
 62
     7
370
    25
100
AcDbLine
 10
-2.3698437622
 20
-0.9792776313
 30
0.0
 11
-2.3412702804
 21
-0.8953804789
 31
0.0
  0
LINE
  5
7C
330
1F
100
AcDbEntity
  8
0
  6
Continuous
 62
     7
370
    25
100
AcDbLine
 10
-2.3412702804
 20
-0.8953804789
 30
0.0
 11
-2.2217825257
 21
-0.8953804789
 31
0.0
  0
LINE
  5
7D
330
1F
100
AcDbEntity
  8
0
  6
Continuous
 62
     7
370
    25
100
AcDbLine
 10
-2.2217825257
 20
-0.8953804789
 30
0.0
 11
-2.1933981867
 21
-0.979792317
 31
0.0
  0
LINE
  5
7E
330
1F
100
AcDbEntity
  8
0
  6
Continuous
 62
     7
370
    25
100
AcDbLine
 10
-2.1933981867
 20
-0.979792317
 30
0.0
 11
-2.2439739181
 21
-0.9850318545
 31
0.0
  0
LINE
  5
7F
330
1F
100
AcDbEntity
  8
0
  6
Continuous
 62
     7
370
    25
100
AcDbLine
 10
-2.2439739181
 20
-0.9850318545
 30
0.0
 11
-2.2439739181
 21
-0.9997282608
 31
0.0
  0
LINE
  5
80
330
1F
100
AcDbEntity
  8
0
  6
Continuous
 62
     7
370
    25
100
AcDbLine
 10
-2.2439739181
 20
-0.9997282608
 30
0.0
 11
-2.1036004593
 21
-0.9997282608
 31
0.0
  0
LINE
  5
81
330
1F
100
AcDbEntity
  8
0
  6
Continuous
 62
     7
370
    25
100
AcDbLine
 10
-2.1036004593
 20
-0.9997282608
 30
0.0
 11
-2.1024462312
 21
-0.9845476864
 31
0.0
  0
LINE
  5
82
330
1F
100
AcDbEntity
  8
0
  6
Continuous
 62
     7
370
    25
100
AcDbLine
 10
-2.1024462312
 20
-0.9845476864
 30
0.0
 11
-2.1411241516
 21
-0.9805846463
 31
0.0
  0
LINE
  5
83
330
1F
100
AcDbEntity
  8
0
  6
Continuous
 62
     7
370
    25
100
AcDbLine
 10
-2.1411241516
 20
-0.9805846463
 30
0.0
 11
-2.2509924319
 21
-0.6828804338
 31
0.0
  0
LINE
  5
84
330
1F
100
AcDbEntity
  8
0
  6
Continuous
 62
     7
370
    25
100
AcDbLine
 10
-2.2509924319
 20
-0.6828804338
 30
0.0
 11
-2.2834886838
 21
-0.6828804338
 31
0.0
  0
LINE
  5
85
330
1F
100
AcDbEntity
  8
0
  6
Continuous
 62
     7
370
    25
100
AcDbLine
 10
-2.2834886838
 20
-0.6828804338
 30
0.0
 11
-2.3938250772
 21
-0.9792776313
 31
0.0
  0
SPLINE
  5
86
330
1F
100
AcDbEntity
  8
0
  6
Continuous
 62
     7
370
    25
100
AcDbSpline
210
0.0
220
0.0
230
1.0
 70
     8
 71
     3
 72
    21
 73
    17
 74
     0
 42
0.000000001
 43
0.00000001
 40
0.0
 40
0.0
 40
0.0
 40
0.0
 40
0.1716031246442103
 40
0.2482441112382435
 40
0.3187722358917472
 40
0.3844797117730027
 40
0.44575514275536
 40
0.5026886766491543
 40
0.5571128798614005
 40
0.6095814181799472
 40
0.6616917658568418
 40
0.7141948381007942
 40
0.7670991405316001
 40
0.8215011365805377
 40
0.8782007251916057
 40
1.0
 40
1.0
 40
1.0
 40
1.0
 10
-2.050323722576368
 20
-0.9196540993661054
 30
0.0
 10
-2.050361606214956
 20
-0.9267263506205167
 30
0.0
 10
-2.049871808693888
 20
-0.9369560944792599
 30
0.0
 10
-2.048083865330498
 20
-0.9499832459915657
 30
0.0
 10
-2.046062507603162
 20
-0.958526712576922
 30
0.0
 10
-2.043687290295245
 20
-0.9663207666987053
 30
0.0
 10
-2.040635519539002
 20
-0.9732784122388243
 30
0.0
 10
-2.037000045608625
 20
-0.9794118583967593
 30
0.0
 10
-2.032840226126662
 20
-0.9847525742175628
 30
0.0
 10
-2.028151560802473
 20
-0.9893527291163431
 30
0.0
 10
-2.02302126590374
 20
-0.993319736002254
 30
0.0
 10
-2.017441601804974
 20
-0.9966709038045726
 30
0.0
 10
-2.011389166094185
 20
-0.9992944855511364
 30
0.0
 10
-2.00497395962658
 20
-1.001451766790376
 30
0.0
 10
-1.995547100126753
 20
-1.003371824255548
 30
0.0
 10
-1.98816482334112
 20
-1.003676440785134
 30
0.0
 10
-1.983152594928795
 20
-1.003668479039675
 30
0.0
  0
SPLINE
  5
87
330
1F
100
AcDbEntity
  8
0
  6
Continuous
 62
     7
370
    25
100
AcDbSpline
210
0.0
220
0.0
230
1.0
 70
     8
 71
     3
 72
    13
 73
     9
 74
     0
 42
0.000000001
 43
0.00000001
 40
0.0
 40
0.0
 40
0.0
 40
0.0
 40
0.2260001948850194
 40
0.3423949613815297
 40
0.4629057613538126
 40
0.5881841219228128
 40
0.7180082084908591
 40
1.0
 40
1.0
 40
1.0
 40
1.0
 10
-1.983152594928795
 20
-1.003668479039675
 30
0.0
 10
-1.975242781242051
 20
-1.003827966334492
 30
0.0
 10
-1.963294511081029
 20
-1.002384950524857
 30
0.0
 10
-1.947691538877385
 20
-0.9980504264363598
 30
0.0
 10
-1.935889900645594
 20
-0.9934243579775818
 30
0.0
 10
-1.924263902600964
 20
-0.987286722499571
 30
0.0
 10
-1.908689630433098
 20
-0.9767585269439011
 30
0.0
 10
-1.898213243528757
 20
-0.966777110704037
 30
0.0
 10
-1.891508553733983
 20
-0.959578795766559
 30
0.0
  0
LINE
  5
88
330
1F
100
AcDbEntity
  8
0
  6
Continuous
 62
     7
370
    25
100
AcDbLine
 10
-1.8915085537
 20
-0.9595787958
 30
0.0
 11
-1.8863206307
 21
-1.0040761542
 31
0.0
  0
LINE
  5
89
330
1F
100
AcDbEntity
  8
0
  6
Continuous
 62
     7
370
    25
100
AcDbLine
 10
-1.8863206307
 20
-1.0040761542
 30
0.0
 11
-1.8153580249
 21
-0.9997283272
 31
0.0
  0
LINE
  5
8A
330
1F
100
AcDbEntity
  8
0
  6
Continuous
 62
     7
370
    25
100
AcDbLine
 10
-1.8153580249
 20
-0.9997283272
 30
0.0
 11
-1.8153580249
 21
-0.9846992792
 31
0.0
  0
LINE
  5
8B
330
1F
100
AcDbEntity
  8
0
  6
Continuous
 62
     7
370
    25
100
AcDbLine
 10
-1.8153580249
 20
-0.9846992792
 30
0.0
 11
-1.8504513896
 21
-0.9785326041
 31
0.0
  0
LINE
  5
8C
330
1F
100
AcDbEntity
  8
0
  6
Continuous
 62
     7
370
    25
100
AcDbLine
 10
-1.8504513896
 20
-0.9785326041
 30
0.0
 11
-1.8504513896
 21
-0.8452963459
 31
0.0
  0
LINE
  5
8D
330
1F
100
AcDbEntity
  8
0
  6
Continuous
 62
     7
370
    25
100
AcDbLine
 10
-1.8504513896
 20
-0.8452963459
 30
0.0
 11
-1.8489031529
 21
-0.778915292
 31
0.0
  0
LINE
  5
8E
330
1F
100
AcDbEntity
  8
0
  6
Continuous
 62
     7
370
    25
100
AcDbLine
 10
-1.8489031529
 20
-0.778915292
 30
0.0
 11
-1.8540640082
 21
-0.7741847347
 31
0.0
  0
LINE
  5
8F
330
1F
100
AcDbEntity
  8
0
  6
Continuous
 62
     7
370
    25
100
AcDbLine
 10
-1.8540640082
 20
-0.7741847347
 30
0.0
 11
-1.9287812057
 21
-0.7808118935
 31
0.0
  0
LINE
  5
90
330
1F
100
AcDbEntity
  8
0
  6
Continuous
 62
     7
370
    25
100
AcDbLine
 10
-1.9287812057
 20
-0.7808118935
 30
0.0
 11
-1.9287812057
 21
-0.7975374538
 31
0.0
  0
LINE
  5
91
330
1F
100
AcDbEntity
  8
0
  6
Continuous
 62
     7
370
    25
100
AcDbLine
 10
-1.9287812057
 20
-0.7975374538
 30
0.0
 11
-1.8922538462
 21
-0.804076178
 31
0.0
  0
LINE
  5
92
330
1F
100
AcDbEntity
  8
0
  6
Continuous
 62
     7
370
    25
100
AcDbLine
 10
-1.8922538462
 20
-0.804076178
 30
0.0
 11
-1.8938006234
 21
-0.9401578693
 31
0.0
  0
SPLINE
  5
93
330
1F
100
AcDbEntity
  8
0
  6
Continuous
 62
     7
370
    25
100
AcDbSpline
210
0.0
220
0.0
230
1.0
 70
     8
 71
     3
 72
    13
 73
     9
 74
     0
 42
0.000000001
 43
0.00000001
 40
0.0
 40
0.0
 40
0.0
 40
0.0
 40
0.2803608732167138
 40
0.4102507433967948
 40
0.5353871156550606
 40
0.6551639470364697
 40
0.7724436838346932
 40
1.0
 40
1.0
 40
1.0
 40
1.0
 10
-1.893800623365452
 20
-0.9401578693227481
 30
0.0
 10
-1.899488346330569
 20
-0.944965343522246
 30
0.0
 10
-1.908301614746169
 20
-0.9514150848034738
 30
0.0
 10
-1.920604926149976
 20
-0.958569340712488
 30
0.0
 10
-1.929638863476165
 20
-0.9627787922439225
 30
0.0
 10
-1.938684578681751
 20
-0.9660807965302388
 30
0.0
 10
-1.950627769303553
 20
-0.9692502200939189
 30
0.0
 10
-1.959781335852357
 20
-0.9702576391456527
 30
0.0
 10
-1.965829221685891
 20
-0.9702445589004252
 30
0.0
  0
SPLINE
  5
94
330
1F
100
AcDbEntity
  8
0
  6
Continuous
 62
     7
370
    25
100
AcDbSpline
210
0.0
220
0.0
230
1.0
 70
     8
 71
     3
 72
    21
 73
    17
 74
     0
 42
0.000000001
 43
0.00000001
 40
0.0
 40
0.0
 40
0.0
 40
0.0
 40
0.1243287273811591
 40
0.1805338800053108
 40
0.2349649171267383
 40
0.2861778416607001
 40
0.3368089475470964
 40
0.3874985358161226
 40
0.4380417912501847
 40
0.4905684471328772
 40
0.5471675659293385
 40
0.6079075794960359
 40
0.6749373630023713
 40
0.7461671916285891
 40
0.8242003055469445
 40
1.0
 40
1.0
 40
1.0
 40
1.0
 10
-1.965829221685891
 20
-0.9702445589004252
 30
0.0
 10
-1.969106055968035
 20
-0.9703968401564977
 30
0.0
 10
-1.973854936598256
 20
-0.9700191583921446
 30
0.0
 10
-1.979939364220072
 20
-0.9688593982533074
 30
0.0
 10
-1.983985087148734
 20
-0.9674900228268393
 30
0.0
 10
-1.987725515982617
 20
-0.965769396487461
 30
0.0
 10
-1.991167812496437
 20
-0.9636749808625851
 30
0.0
 10
-1.994201686179272
 20
-0.9610565451418425
 30
0.0
 10
-1.996991264031459
 20
-0.9581110367269895
 30
0.0
 10
-1.999373614593081
 20
-0.954634864084452
 30
0.0
 10
-2.001506947783596
 20
-0.9506945896196152
 30
0.0
 10
-2.003175317060932
 20
-0.9461249985983328
 30
0.0
 10
-2.004556303435887
 20
-0.9410734521333415
 30
0.0
 10
-2.005770861679643
 20
-0.9355056962169795
 30
0.0
 10
-2.006700660174219
 20
-0.9269938240740605
 30
0.0
 10
-2.007059372337014
 20
-0.9203232286812534
 30
0.0
 10
-2.006997708686674
 20
-0.9156929168845367
 30
0.0
  0
LINE
  5
95
330
1F
100
AcDbEntity
  8
0
  6
Continuous
 62
     7
370
    25
100
AcDbLine
 10
-2.0069977087
 20
-0.9156929169
 30
0.0
 11
-2.0069730956
 21
-0.8438804627
 31
0.0
  0
LINE
  5
96
330
1F
100
AcDbEntity
  8
0
  6
Continuous
 62
     7
370
    25
100
AcDbLine
 10
-2.0069730956
 20
-0.8438804627
 30
0.0
 11
-2.0044009939
 21
-0.7788553847
 31
0.0
  0
LINE
  5
97
330
1F
100
AcDbEntity
  8
0
  6
Continuous
 62
     7
370
    25
100
AcDbLine
 10
-2.0044009939
 20
-0.7788553847
 30
0.0
 11
-2.0095534901
 21
-0.774184801
 31
0.0
  0
LINE
  5
98
330
1F
100
AcDbEntity
  8
0
  6
Continuous
 62
     7
370
    25
100
AcDbLine
 10
-2.0095534901
 20
-0.774184801
 30
0.0
 11
-2.0854170873
 21
-0.7807235916
 31
0.0
  0
LINE
  5
99
330
1F
100
AcDbEntity
  8
0
  6
Continuous
 62
     7
370
    25
100
AcDbLine
 10
-2.0854170873
 20
-0.7807235916
 30
0.0
 11
-2.0854170873
 21
-0.7971778771
 31
0.0
  0
LINE
  5
9A
330
1F
100
AcDbEntity
  8
0
  6
Continuous
 62
     7
370
    25
100
AcDbLine
 10
-2.0854170873
 20
-0.7971778771
 30
0.0
 11
-2.0487754859
 21
-0.804076178
 31
0.0
  0
LINE
  5
9B
330
1F
100
AcDbEntity
  8
0
  6
Continuous
 62
     7
370
    25
100
AcDbLine
 10
-2.0487754859
 20
-0.804076178
 30
0.0
 11
-2.0503237226
 21
-0.9196540994
 31
0.0
  0
SPLINE
  5
9C
330
1F
100
AcDbEntity
  8
0
  6
Continuous
 62
     7
370
    25
100
AcDbSpline
210
0.0
220
0.0
230
1.0
 70
     8
 71
     3
 72
     9
 73
     5
 74
     0
 42
0.000000001
 43
0.00000001
 40
0.0
 40
0.0
 40
0.0
 40
0.0
 40
0.5425431024544459
 40
1.0
 40
1.0
 40
1.0
 40
1.0
 10
-1.643832215699774
 20
-0.9665895474035224
 30
0.0
 10
-1.649422090125886
 20
-0.9703383281890463
 30
0.0
 10
-1.660430571865634
 20
-0.9763842745213283
 30
0.0
 10
-1.672749821128936
 20
-0.9789800979275557
 30
0.0
 10
-1.678465030244784
 20
-0.9789402129203926
 30
0.0
  0
SPLINE
  5
9D
330
1F
100
AcDbEntity
  8
0
  6
Continuous
 62
     7
370
    25
100
AcDbSpline
210
0.0
220
0.0
230
1.0
 70
     8
 71
     3
 72
    13
 73
     9
 74
     0
 42
0.000000001
 43
0.00000001
 40
0.0
 40
0.0
 40
0.0
 40
0.0
 40
0.2444332259003257
 40
0.3521031911951582
 40
0.459867577492571
 40
0.5726379332009824
 40
0.6983940980237859
 40
1.0
 40
1.0
 40
1.0
 40
1.0
 10
-1.678465030244784
 20
-0.9789402129203926
 30
0.0
 10
-1.68250917251783
 20
-0.9790502130228358
 30
0.0
 10
-1.688510096594251
 20
-0.9784315683238546
 30
0.0
 10
-1.695395132537769
 20
-0.974866433944326
 30
0.0
 10
-1.699401422754911
 20
-0.9710604352041636
 30
0.0
 10
-1.702608053275105
 20
-0.9662118737539401
 30
0.0
 10
-1.705809775954791
 20
-0.9577440359550378
 30
0.0
 10
-1.70663993497772
 20
-0.9505943916514423
 30
0.0
 10
-1.706793840606709
 20
-0.9455842275781743
 30
0.0
  0
LINE
  5
9E
330
1F
100
AcDbEntity
  8
0
  6
Continuous
 62
     7
370
    25
100
AcDbLine
 10
-1.7067938406
 20
-0.9455842276
 30
0.0
 11
-1.7067938406
 21
-0.8037480477
 31
0.0
  0
LINE
  5
9F
330
1F
100
AcDbEntity
  8
0
  6
Continuous
 62
     7
370
    25
100
AcDbLine
 10
-1.7067938406
 20
-0.8037480477
 30
0.0
 11
-1.6366071112
 21
-0.8037480477
 31
0.0
  0
LINE
  5
A0
330
1F
100
AcDbEntity
  8
0
  6
Continuous
 62
     7
370
    25
100
AcDbLine
 10
-1.6366071112
 20
-0.8037480477
 30
0.0
 11
-1.6366071112
 21
-0.7788606921
 31
0.0
  0
LINE
  5
A1
330
1F
100
AcDbEntity
  8
0
  6
Continuous
 62
     7
370
    25
100
AcDbLine
 10
-1.6366071112
 20
-0.7788606921
 30
0.0
 11
-1.7079927836
 21
-0.7788606921
 31
0.0
  0
LINE
  5
A2
330
1F
100
AcDbEntity
  8
0
  6
Continuous
 62
     7
370
    25
100
AcDbLine
 10
-1.7079927836
 20
-0.7788606921
 30
0.0
 11
-1.7055036765
 21
-0.7149987984
 31
0.0
  0
LINE
  5
A3
330
1F
100
AcDbEntity
  8
0
  6
Continuous
 62
     7
370
    25
100
AcDbLine
 10
-1.7055036765
 20
-0.7149987984
 30
0.0
 11
-1.7335644629
 21
-0.7156098799
 31
0.0
  0
LINE
  5
A4
330
1F
100
AcDbEntity
  8
0
  6
Continuous
 62
     7
370
    25
100
AcDbLine
 10
-1.7335644629
 20
-0.7156098799
 30
0.0
 11
-1.7466979045
 21
-0.778532628
 31
0.0
  0
LINE
  5
A5
330
1F
100
AcDbEntity
  8
0
  6
Continuous
 62
     7
370
    25
100
AcDbLine
 10
-1.7466979045
 20
-0.778532628
 30
0.0
 11
-1.7925632468
 21
-0.7836426649
 31
0.0
  0
LINE
  5
A6
330
1F
100
AcDbEntity
  8
0
  6
Continuous
 62
     7
370
    25
100
AcDbLine
 10
-1.7925632468
 20
-0.7836426649
 30
0.0
 11
-1.7925632468
 21
-0.8037480477
 31
0.0
  0
LINE
  5
A7
330
1F
100
AcDbEntity
  8
0
  6
Continuous
 62
     7
370
    25
100
AcDbLine
 10
-1.7925632468
 20
-0.8037480477
 30
0.0
 11
-1.7497286987
 21
-0.8037480477
 31
0.0
  0
LINE
  5
A8
330
1F
100
AcDbEntity
  8
0
  6
Continuous
 62
     7
370
    25
100
AcDbLine
 10
-1.7497286987
 20
-0.8037480477
 30
0.0
 11
-1.7497286987
 21
-0.9116977007
 31
0.0
  0
SPLINE
  5
A9
330
1F
100
AcDbEntity
  8
0
  6
Continuous
 62
     7
370
    25
100
AcDbSpline
210
0.0
220
0.0
230
1.0
 70
     8
 71
     3
 72
    11
 73
     7
 74
     0
 42
0.000000001
 43
0.00000001
 40
0.0
 40
0.0
 40
0.0
 40
0.0
 40
0.3086557180519477
 40
0.4430770142501564
 40
0.5617895551823032
 40
1.0
 40
1.0
 40
1.0
 40
1.0
 10
-1.749728698672873
 20
-0.9116977006618769
 30
0.0
 10
-1.749770243290195
 20
-0.915701573757077
 30
0.0
 10
-1.749832920558283
 20
-0.9214491627131677
 30
0.0
 10
-1.749930508715782
 20
-0.9287364113544461
 30
0.0
 10
-1.750042846297553
 20
-0.9377044198225969
 30
0.0
 10
-1.750341125228794
 20
-0.9449248818992314
 30
0.0
 10
-1.750272110706546
 20
-0.9506114025584679
 30
0.0
  0
SPLINE
  5
AA
330
1F
100
AcDbEntity
  8
0
  6
Continuous
 62
     7
370
    25
100
AcDbSpline
210
0.0
220
0.0
230
1.0
 70
     8
 71
     3
 72
    21
 73
    17
 74
     0
 42
0.000000001
 43
0.00000001
 40
0.0
 40
0.0
 40
0.0
 40
0.0
 40
0.1410495945602255
 40
0.2054927730845716
 40
0.2669215976711797
 40
0.3260143732824929
 40
0.3828827980689617
 40
0.4390534243453971
 40
0.4948641435897795
 40
0.5511678636719756
 40
0.6080362884584432
 40
0.6667576535967379
 40
0.7272419443038664
 40
0.7907355572255373
 40
0.8569762655288643
 40
1.0
 40
1.0
 40
1.0
 40
1.0
 10
-1.750272110706546
 20
-0.9506114025584679
 30
0.0
 10
-1.750324503889892
 20
-0.9548283597131607
 30
0.0
 10
-1.749719197159167
 20
-0.9609498919764642
 30
0.0
 10
-1.748082716358747
 20
-0.9687562843825032
 30
0.0
 10
-1.746377397529164
 20
-0.9740171250219948
 30
0.0
 10
-1.744221230065649
 20
-0.9788661484120639
 30
0.0
 10
-1.741533642366696
 20
-0.983258912486006
 30
0.0
 10
-1.738412403987152
 20
-0.9872337871840069
 30
0.0
 10
-1.734763075909853
 20
-0.990705984670385
 30
0.0
 10
-1.730741433973662
 20
-0.9937618625959713
 30
0.0
 10
-1.726356062921693
 20
-0.9964433541235794
 30
0.0
 10
-1.721585415587638
 20
-0.9986681789869193
 30
0.0
 10
-1.716448593376419
 20
-1.00051859480669
 30
0.0
 10
-1.710941210274662
 20
-1.001926193965641
 30
0.0
 10
-1.702912857356621
 20
-1.003315875662538
 30
0.0
 10
-1.696658747957613
 20
-1.003669368658451
 30
0.0
 10
-1.692391663636138
 20
-1.003668479039675
 30
0.0
  0
SPLINE
  5
AB
330
1F
100
AcDbEntity
  8
0
  6
Continuous
 62
     7
370
    25
100
AcDbSpline
210
0.0
220
0.0
230
1.0
 70
     8
 71
     3
 72
    13
 73
     9
 74
     0
 42
0.000000001
 43
0.00000001
 40
0.0
 40
0.0
 40
0.0
 40
0.0
 40
0.2789328679213724
 40
0.4069916252470266
 40
0.5307151150315447
 40
0.6494393776567825
 40
0.7665462002803909
 40
1.0
 40
1.0
 40
1.0
 40
1.0
 10
-1.692391663636138
 20
-1.003668479039675
 30
0.0
 10
-1.686056378471166
 20
-1.003665658565099
 30
0.0
 10
-1.676830439417951
 20
-1.002768682229911
 30
0.0
 10
-1.665064869994031
 20
-1.000116567093887
 30
0.0
 10
-1.65710801940055
 20
-0.9973387432415657
 30
0.0
 10
-1.649756024637619
 20
-0.9937630483234342
 30
0.0
 10
-1.640738148898925
 20
-0.9880531467389515
 30
0.0
 10
-1.634871866876622
 20
-0.9825822407912749
 30
0.0
 10
-1.631454150699336
 20
-0.9785326041382066
 30
0.0
  0
LINE
  5
AC
330
1F
100
AcDbEntity
  8
0
  6
Continuous
 62
     7
370
    25
100
AcDbLine
 10
-1.6314541507
 20
-0.9785326041
 30
0.0
 11
-1.6438322157
 21
-0.9665895474
 31
0.0
  0
SPLINE
  5
AD
330
1F
100
AcDbEntity
  8
0
  6
Continuous
 62
     7
370
    25
100
AcDbSpline
210
0.0
220
0.0
230
1.0
 70
     8
 71
     3
 72
    21
 73
    17
 74
     0
 42
0.000000001
 43
0.00000001
 40
0.0
 40
0.0
 40
0.0
 40
0.0
 40
0.1244664636048364
 40
0.1843578131380679
 40
0.2432446731150365
 40
0.3012356406968056
 40
0.3593036817586726
 40
0.4175887919136554
 40
0.4766351570645857
 40
0.5361696270227346
 40
0.595378400296994
 40
0.6558533444535332
 40
0.7178216158491122
 40
0.7828648651167752
 40
0.8507763790801472
 40
1.0
 40
1.0
 40
1.0
 40
1.0
 10
-1.487228576602534
 20
-1.006046196935759
 30
0.0
 10
-1.494999288149443
 20
-1.006069435604082
 30
0.0
 10
-1.50652433454945
 20
-1.005278024451865
 30
0.0
 10
-1.52144426212794
 20
-1.002343630038445
 30
0.0
 10
-1.532063403104923
 20
-0.9992886624985847
 30
0.0
 10
-1.542268278075509
 20
-0.995343385141969
 30
0.0
 10
-1.551981046973712
 20
-0.9903978846131785
 30
0.0
 10
-1.561350422542125
 20
-0.9847039097232209
 30
0.0
 10
-1.570186121349987
 20
-0.9780471287895309
 30
0.0
 10
-1.578338445154523
 20
-0.9704829588991293
 30
0.0
 10
-1.585594946277635
 20
-0.9619177045517708
 30
0.0
 10
-1.591602659824312
 20
-0.9522589253442723
 30
0.0
 10
-1.596669384084799
 20
-0.9416842418140986
 30
0.0
 10
-1.60073475610039
 20
-0.9301885368082086
 30
0.0
 10
-1.604854772950068
 20
-0.9130254923618987
 30
0.0
 10
-1.605954560077224
 20
-0.8994464370339127
 30
0.0
 10
-1.606318275797868
 20
-0.8901494332008824
 30
0.0
  0
SPLINE
  5
AE
330
1F
100
AcDbEntity
  8
0
  6
Continuous
 62
     7
370
    25
100
AcDbSpline
210
0.0
220
0.0
230
1.0
 70
     8
 71
     3
 72
    21
 73
    17
 74
     0
 42
0.000000001
 43
0.00000001
 40
0.0
 40
0.0
 40
0.0
 40
0.0
 40
0.149147726510579
 40
0.2170872734479693
 40
0.2819545952709078
 40
0.3441872420592268
 40
0.4048047077441349
 40
0.4641966117099666
 40
0.523945637461484
 40
0.5835218807943405
 40
0.641757181806829
 40
0.7000994968579517
 40
0.758040906664845
 40
0.8168774432574735
 40
0.8763621402255989
 40
1.0
 40
1.0
 40
1.0
 40
1.0
 10
-1.367731268625014
 20
-0.8901494332008824
 30
0.0
 10
-1.368073467742224
 20
-0.899445861535319
 30
0.0
 10
-1.369201555640798
 20
-0.913049180214898
 30
0.0
 10
-1.37349784959706
 20
-0.9301582779835206
 30
0.0
 10
-1.377394968814958
 20
-0.9417363032811944
 30
0.0
 10
-1.38267714025473
 20
-0.9522399311809986
 30
0.0
 10
-1.388719405974273
 20
-0.9619257576655877
 30
0.0
 10
-1.396057946977025
 20
-0.9704800544737526
 30
0.0
 10
-1.404275008939488
 20
-0.9780759352723499
 30
0.0
 10
-1.413228869802613
 20
-0.9846606734702276
 30
0.0
 10
-1.422620265618068
 20
-0.990423775094499
 30
0.0
 10
-1.432380188025155
 20
-0.9953238141674371
 30
0.0
 10
-1.442595635386707
 20
-0.9992928487198753
 30
0.0
 10
-1.453196517164629
 20
-1.002333070573425
 30
0.0
 10
-1.468043859428904
 20
-1.005282653822714
 30
0.0
 10
-1.479503698931778
 20
-1.006067159991718
 30
0.0
 10
-1.487228576602534
 20
-1.006046196935759
 30
0.0
  0
SPLINE
  5
AF
330
1F
100
AcDbEntity
  8
0
  6
Continuous
 62
     7
370
    25
100
AcDbSpline
210
0.0
220
0.0
230
1.0
 70
     8
 71
     3
 72
    21
 73
    17
 74
     0
 42
0.000000001
 43
0.00000001
 40
0.0
 40
0.0
 40
0.0
 40
0.0
 40
0.149147726510579
 40
0.2170872734479693
 40
0.2819545952709078
 40
0.3441872420592268
 40
0.4048047077441349
 40
0.4641966117099666
 40
0.523945637461484
 40
0.5835218807943405
 40
0.641757181806829
 40
0.7000994968579517
 40
0.758040906664845
 40
0.8168774432574735
 40
0.8763621402255989
 40
1.0
 40
1.0
 40
1.0
 40
1.0
 10
-1.367731268625014
 20
-0.8901494332008824
 30
0.0
 10
-1.368073467742224
 20
-0.8808530048664455
 30
0.0
 10
-1.369201555640798
 20
-0.8672496861868666
 30
0.0
 10
-1.37349784959706
 20
-0.850140588418244
 30
0.0
 10
-1.377394968814959
 20
-0.8385625631205703
 30
0.0
 10
-1.38267714025473
 20
-0.8280589352207657
 30
0.0
 10
-1.388719405974273
 20
-0.8183731087361765
 30
0.0
 10
-1.396057946977025
 20
-0.8098188119280121
 30
0.0
 10
-1.404275008939488
 20
-0.8022229311294148
 30
0.0
 10
-1.413228869802613
 20
-0.7956381929315369
 30
0.0
 10
-1.422620265618068
 20
-0.7898750913072657
 30
0.0
 10
-1.432380188025156
 20
-0.7849750522343274
 30
0.0
 10
-1.442595635386707
 20
-0.7810060176818893
 30
0.0
 10
-1.453196517164629
 20
-0.7779657958283395
 30
0.0
 10
-1.468043859428904
 20
-0.7750162125790508
 30
0.0
 10
-1.479503698931777
 20
-0.7742317064100467
 30
0.0
 10
-1.487228576602534
 20
-0.7742526694660055
 30
0.0
  0
SPLINE
  5
B0
330
1F
100
AcDbEntity
  8
0
  6
Continuous
 62
     7
370
    25
100
AcDbSpline
210
0.0
220
0.0
230
1.0
 70
     8
 71
     3
 72
    21
 73
    17
 74
     0
 42
0.000000001
 43
0.00000001
 40
0.0
 40
0.0
 40
0.0
 40
0.0
 40
0.1244664636048364
 40
0.1843578131380679
 40
0.2432446731150365
 40
0.3012356406968056
 40
0.3593036817586726
 40
0.4175887919136554
 40
0.4766351570645857
 40
0.5361696270227346
 40
0.595378400296994
 40
0.6558533444535332
 40
0.7178216158491122
 40
0.7828648651167752
 40
0.8507763790801472
 40
1.0
 40
1.0
 40
1.0
 40
1.0
 10
-1.487228576602534
 20
-0.7742526694660055
 30
0.0
 10
-1.494999288149444
 20
-0.774229430797683
 30
0.0
 10
-1.50652433454945
 20
-0.7750208419499002
 30
0.0
 10
-1.52144426212794
 20
-0.777955236363319
 30
0.0
 10
-1.532063403104923
 20
-0.7810102039031803
 30
0.0
 10
-1.542268278075509
 20
-0.7849554812597954
 30
0.0
 10
-1.551981046973712
 20
-0.7899009817885865
 30
0.0
 10
-1.561350422542125
 20
-0.7955949566785435
 30
0.0
 10
-1.570186121349987
 20
-0.8022517376122338
 30
0.0
 10
-1.578338445154523
 20
-0.8098159075026354
 30
0.0
 10
-1.585594946277635
 20
-0.8183811618499937
 30
0.0
 10
-1.591602659824312
 20
-0.8280399410574923
 30
0.0
 10
-1.5966693840848
 20
-0.8386146245876657
 30
0.0
 10
-1.60073475610039
 20
-0.8501103295935559
 30
0.0
 10
-1.604854772950068
 20
-0.8672733740398663
 30
0.0
 10
-1.605954560077224
 20
-0.8808524293678519
 30
0.0
 10
-1.606318275797868
 20
-0.8901494332008824
 30
0.0
  0
SPLINE
  5
B1
330
1F
100
AcDbEntity
  8
0
  6
Continuous
 62
     7
370
    25
100
AcDbSpline
210
0.0
220
0.0
230
1.0
 70
     8
 71
     3
 72
    21
 73
    17
 74
     0
 42
0.000000001
 43
0.00000001
 40
0.0
 40
0.0
 40
0.0
 40
0.0
 40
0.118697262559821
 40
0.1739009367670294
 40
0.227524205254742
 40
0.2807664148811695
 40
0.3336270844749216
 40
0.3872972371915979
 40
0.4425681285293215
 40
0.4998544020311808
 40
0.559831007060888
 40
0.6226326717919095
 40
0.6890600160448298
 40
0.7600931067517936
 40
0.8352616005513283
 40
1.0
 40
1.0
 40
1.0
 40
1.0
 10
-1.487228576602534
 20
-0.7911004991296923
 30
0.0
 10
-1.481737931644788
 20
-0.7910886849519381
 30
0.0
 10
-1.473673024010217
 20
-0.7918438182432992
 30
0.0
 10
-1.463480370839474
 20
-0.7945488323334107
 30
0.0
 10
-1.456462053332835
 20
-0.7972478531833982
 30
0.0
 10
-1.449999295552998
 20
-0.8008827894411179
 30
0.0
 10
-1.444039281705914
 20
-0.8052813163208246
 30
0.0
 10
-1.438549135179627
 20
-0.8104005240646703
 30
0.0
 10
-1.433661231182944
 20
-0.8163641083968435
 30
0.0
 10
-1.429295632171442
 20
-0.8230652982250413
 30
0.0
 10
-1.425513465341337
 20
-0.8305032415987086
 30
0.0
 10
-1.422229297415107
 20
-0.8386300473208446
 30
0.0
 10
-1.419583594634607
 20
-0.8475248730482204
 30
0.0
 10
-1.417601696699972
 20
-0.8571690642531304
 30
0.0
 10
-1.415523657042463
 20
-0.8714143069055671
 30
0.0
 10
-1.415086183108651
 20
-0.8825330480626175
 30
0.0
 10
-1.415013887358587
 20
-0.8901494332008824
 30
0.0
  0
SPLINE
  5
B2
330
1F
100
AcDbEntity
  8
0
  6
Continuous
 62
     7
370
    25
100
AcDbSpline
210
0.0
220
0.0
230
1.0
 70
     8
 71
     3
 72
    21
 73
    17
 74
     0
 42
0.000000001
 43
0.00000001
 40
0.0
 40
0.0
 40
0.0
 40
0.0
 40
0.1646159769110157
 40
0.2396507642182617
 40
0.3100310723572299
 40
0.3762583665959958
 40
0.4388497885469532
 40
0.4986225150026562
 40
0.5553160212543852
 40
0.6104498612598459
 40
0.6640517807969293
 40
0.7169267050188677
 40
0.7702927488590701
 40
0.8243406760935752
 40
0.880040323553707
 40
0.999982586051467
 40
0.999982586051467
 40
0.999982586051467
 40
0.999982586051467
 10
-1.415013887358587
 20
-0.8901494332008824
 30
0.0
 10
-1.415083733700664
 20
-0.8976758414782398
 30
0.0
 10
-1.415527080518659
 20
-0.9086581788203235
 30
0.0
 10
-1.417591937780477
 20
-0.9227024399690464
 30
0.0
 10
-1.419593730590527
 20
-0.932184349926556
 30
0.0
 10
-1.422226676600292
 20
-0.9409249096463079
 30
0.0
 10
-1.425517277186582
 20
-0.9489128290501785
 30
0.0
 10
-1.429274571491701
 20
-0.9562103185545147
 30
0.0
 10
-1.433685447772298
 20
-0.9627238020361987
 30
0.0
 10
-1.438549463284658
 20
-0.9685471744313319
 30
0.0
 10
-1.444044796098751
 20
-0.9735259474079035
 30
0.0
 10
-1.450003659148881
 20
-0.9777936268805985
 30
0.0
 10
-1.456484053895138
 20
-0.9812748986446502
 30
0.0
 10
-1.463481996331462
 20
-0.9839195484372746
 30
0.0
 10
-1.473683660002021
 20
-0.9865288533753361
 30
0.0
 10
-1.481742961131927
 20
-0.9871987461048923
 30
0.0
 10
-1.487226188338805
 20
-0.9872282453366011
 30
0.0
  0
SPLINE
  5
B3
330
1F
100
AcDbEntity
  8
0
  6
Continuous
 62
     7
370
    25
100
AcDbSpline
210
0.0
220
0.0
230
1.0
 70
     8
 71
     3
 72
    21
 73
    17
 74
     0
 42
0.000000001
 43
0.00000001
 40
0.0
 40
0.0
 40
0.0
 40
0.0
 40
0.1222065544093429
 40
0.1784727290061311
 40
0.2327833820414014
 40
0.2857958584244488
 40
0.3380614456534712
 40
0.3910182707468718
 40
0.4452202299046121
 40
0.5014536414459255
 40
0.5599823572231767
 40
0.6223011858471834
 40
0.6884882845260394
 40
0.7589776085861677
 40
0.8346191120845445
 40
1.0
 40
1.0
 40
1.0
 40
1.0
 10
-1.487226188338805
 20
-0.987228245336601
 30
0.0
 10
-1.492816641932683
 20
-0.9872714248816801
 30
0.0
 10
-1.500962523786806
 20
-0.9864287317474777
 30
0.0
 10
-1.511310233970337
 20
-0.9838842626222369
 30
0.0
 10
-1.518286539382059
 20
-0.981140560911236
 30
0.0
 10
-1.52470248734731
 20
-0.9776479414443844
 30
0.0
 10
-1.530638016719505
 20
-0.9734854057183185
 30
0.0
 10
-1.53594852842581
 20
-0.968468516580932
 30
0.0
 10
-1.540735064002271
 20
-0.9627187906796352
 30
0.0
 10
-1.544934334723876
 20
-0.956223715286285
 30
0.0
 10
-1.548641648174956
 20
-0.9490184472883815
 30
0.0
 10
-1.551736072627866
 20
-0.9410398203987795
 30
0.0
 10
-1.554309056510111
 20
-0.9323114943333369
 30
0.0
 10
-1.556331748899969
 20
-0.9228173942237494
 30
0.0
 10
-1.558380802729146
 20
-0.908723651723047
 30
0.0
 10
-1.558813257662882
 20
-0.8976970708832017
 30
0.0
 10
-1.558967722267265
 20
-0.8901494332008824
 30
0.0
  0
SPLINE
  5
B4
330
1F
100
AcDbEntity
  8
0
  6
Continuous
 62
     7
370
    25
100
AcDbSpline
210
0.0
220
0.0
230
1.0
 70
     8
 71
     3
 72
    21
 73
    17
 74
     0
 42
0.000000001
 43
0.00000001
 40
0.0
 40
0.0
 40
0.0
 40
0.0
 40
0.1660451178964677
 40
0.2418414728820384
 40
0.3125295553285312
 40
0.3789436107757809
 40
0.4415041036062534
 40
0.5007136510347416
 40
0.5571644481188789
 40
0.611538901839683
 40
0.6642609042441576
 40
0.7165363445616748
 40
0.7692127199542227
 40
0.8231186206503079
 40
0.8790279980075053
 40
1.0
 40
1.0
 40
1.0
 40
1.0
 10
-1.558967722267265
 20
-0.8901494332008824
 30
0.0
 10
-1.558815486030707
 20
-0.8824885757084423
 30
0.0
 10
-1.55838277567815
 20
-0.8713043633821551
 30
0.0
 10
-1.556331347527291
 20
-0.8570066993470207
 30
0.0
 10
-1.554307344927713
 20
-0.8473779473412247
 30
0.0
 10
-1.551738842120496
 20
-0.8385121379838211
 30
0.0
 10
-1.548622256308113
 20
-0.8303876428517556
 30
0.0
 10
-1.544955756207827
 20
-0.823003283508595
 30
0.0
 10
-1.540730362130881
 20
-0.8163672779224672
 30
0.0
 10
-1.5359758468803
 20
-0.810473611128135
 30
0.0
 10
-1.530616180248207
 20
-0.805398849379457
 30
0.0
 10
-1.524729216906047
 20
-0.8010812415731541
 30
0.0
 10
-1.518288392243576
 20
-0.7975277858466231
 30
0.0
 10
-1.511304124574719
 20
-0.7947349226698471
 30
0.0
 10
-1.500993540407241
 20
-0.7919499168841239
 30
0.0
 10
-1.492814417884829
 20
-0.7911341075823761
 30
0.0
 10
-1.487228576602534
 20
-0.7911004991296923
 30
0.0
  0
LINE
  5
B5
330
1F
100
AcDbEntity
  8
0
  6
Continuous
 62
     7
370
    25
100
AcDbLine
 10
-1.3199791435
 20
-0.7020835576
 30
0.0
 11
-1.2724998854
 21
-0.7067703288
 31
0.0
  0
SPLINE
  5
B6
330
1F
100
AcDbEntity
  8
0
  6
Continuous
 62
     7
370
    25
100
AcDbSpline
210
0.0
220
0.0
230
1.0
 70
     8
 71
     2
 72
     6
 73
     3
 74
     0
 42
0.000000001
 43
0.00000001
 40
0.0
 40
0.0
 40
0.0
 40
1.0
 40
1.0
 40
1.0
 10
-1.27249988536003
 20
-0.7067703287980494
 30
0.0
 10
-1.271325406694795
 20
-0.7700238924771664
 30
0.0
 10
-1.271535596029126
 20
-0.8332880080859398
 30
0.0
  0
LINE
  5
B7
330
1F
100
AcDbEntity
  8
0
  6
Continuous
 62
     7
370
    25
100
AcDbLine
 10
-1.271535596
 20
-0.8332880081
 30
0.0
 11
-1.2714677276
 21
-0.8571526929
 31
0.0
  0
SPLINE
  5
B8
330
1F
100
AcDbEntity
  8
0
  6
Continuous
 62
     7
370
    25
100
AcDbSpline
210
0.0
220
0.0
230
1.0
 70
     8
 71
     3
 72
     9
 73
     5
 74
     0
 42
0.000000001
 43
0.00000001
 40
0.0
 40
0.0
 40
0.0
 40
0.0
 40
0.4847033425142599
 40
1.0
 40
1.0
 40
1.0
 40
1.0
 10
-1.27146772757467
 20
-0.8571526929035105
 30
0.0
 10
-1.271582118392832
 20
-0.8770280961483735
 30
0.0
 10
-1.271392627831773
 20
-0.9180354079950839
 30
0.0
 10
-1.272076160939419
 20
-0.9590385282959444
 30
0.0
 10
-1.272554617984591
 20
-0.9801630392669501
 30
0.0
  0
LINE
  5
B9
330
1F
100
AcDbEntity
  8
0
  6
Continuous
 62
     7
370
    25
100
AcDbLine
 10
-1.272554618
 20
-0.9801630393
 30
0.0
 11
-1.3199791435
 21
-0.9848740919
 31
0.0
  0
LINE
  5
BA
330
1F
100
AcDbEntity
  8
0
  6
Continuous
 62
     7
370
    25
100
AcDbLine
 10
-1.3199791435
 20
-0.9848740919
 30
0.0
 11
-1.3199791435
 21
-0.9997282608
 31
0.0
  0
LINE
  5
BB
330
1F
100
AcDbEntity
  8
0
  6
Continuous
 62
     7
370
    25
100
AcDbLine
 10
-1.3199791435
 20
-0.9997282608
 30
0.0
 11
-1.1747542512
 21
-0.9997282608
 31
0.0
  0
LINE
  5
BC
330
1F
100
AcDbEntity
  8
0
  6
Continuous
 62
     7
370
    25
100
AcDbLine
 10
-1.1747542512
 20
-0.9997282608
 30
0.0
 11
-1.1747542512
 21
-0.9848740919
 31
0.0
  0
LINE
  5
BD
330
1F
100
AcDbEntity
  8
0
  6
Continuous
 62
     7
370
    25
100
AcDbLine
 10
-1.1747542512
 20
-0.9848740919
 30
0.0
 11
-1.2231444592
 21
-0.980118258
 31
0.0
  0
SPLINE
  5
BE
330
1F
100
AcDbEntity
  8
0
  6
Continuous
 62
     7
370
    25
100
AcDbSpline
210
0.0
220
0.0
230
1.0
 70
     8
 71
     2
 72
     6
 73
     3
 74
     0
 42
0.000000001
 43
0.00000001
 40
0.0
 40
0.0
 40
0.0
 40
1.0
 40
1.0
 40
1.0
 10
-1.22314445920611
 20
-0.980118258028673
 30
0.0
 10
-1.224399310395088
 20
-0.9269210322847763
 30
0.0
 10
-1.224252977295554
 20
-0.8737092123193816
 30
0.0
  0
LINE
  5
BF
330
1F
100
AcDbEntity
  8
0
  6
Continuous
 62
     7
370
    25
100
AcDbLine
 10
-1.2242529773
 20
-0.8737092123
 30
0.0
 11
-1.1971282183
 21
-0.8736413439
 31
0.0
  0
SPLINE
  5
C0
330
1F
100
AcDbEntity
  8
0
  6
Continuous
 62
     7
370
    25
100
AcDbSpline
210
0.0
220
0.0
230
1.0
 70
     8
 71
     3
 72
    21
 73
    17
 74
     0
 42
0.000000001
 43
0.00000001
 40
0.0
 40
0.0
 40
0.0
 40
0.0
 40
0.1874831621269978
 40
0.2710023102191921
 40
0.3476188899715314
 40
0.4183331453110817
 40
0.4830657573014093
 40
0.5429786258477408
 40
0.5984268892675769
 40
0.6508482299902929
 40
0.7014952942028115
 40
0.7505373946605205
 40
0.7988722536670325
 40
0.8471918442118591
 40
0.8964391426388263
 40
1.0
 40
1.0
 40
1.0
 40
1.0
 10
-1.197128218331398
 20
-0.8736413438649259
 30
0.0
 10
-1.185023328065322
 20
-0.8735603006518147
 30
0.0
 10
-1.167516951997613
 20
-0.8727585481767187
 30
0.0
 10
-1.145245619673376
 20
-0.8698222401605908
 30
0.0
 10
-1.130634675253591
 20
-0.8668189932596279
 30
0.0
 10
-1.117415273403485
 20
-0.8631758296564205
 30
0.0
 10
-1.105646739487867
 20
-0.8585844408843081
 30
0.0
 10
-1.095219012061858
 20
-0.8533706710363917
 30
0.0
 10
-1.086304460170144
 20
-0.8471527562179432
 30
0.0
 10
-1.078626185618593
 20
-0.8403571574666735
 30
0.0
 10
-1.071991126485845
 20
-0.8330849807930796
 30
0.0
 10
-1.066442751092382
 20
-0.8252726869868621
 30
0.0
 10
-1.061925855683529
 20
-0.8169961281002226
 30
0.0
 10
-1.058412054235405
 20
-0.8082278032069352
 30
0.0
 10
-1.055194940418715
 20
-0.7956069303099677
 30
0.0
 10
-1.054546479998384
 20
-0.785688871570293
 30
0.0
 10
-1.054687723906191
 20
-0.7790081052581751
 30
0.0
  0
SPLINE
  5
C1
330
1F
100
AcDbEntity
  8
0
  6
Continuous
 62
     7
370
    25
100
AcDbSpline
210
0.0
220
0.0
230
1.0
 70
     8
 71
     3
 72
    21
 73
    17
 74
     0
 42
0.000000001
 43
0.00000001
 40
0.0
 40
0.0
 40
0.0
 40
0.0
 40
0.1151840514199006
 40
0.1689969531513979
 40
0.2216494388341186
 40
0.2732530619786631
 40
0.3251030847248649
 40
0.377612335548684
 40
0.4318528251881163
 40
0.4883238280997395
 40
0.5478988101960963
 40
0.6112911465292276
 40
0.6788370068242555
 40
0.751162666194726
 40
0.828449661948423
 40
1.0
 40
1.0
 40
1.0
 40
1.0
 10
-1.054687723906191
 20
-0.7790081052581751
 30
0.0
 10
-1.054686259330361
 20
-0.7721578222592355
 30
0.0
 10
-1.055527714711697
 20
-0.7620751897107668
 30
0.0
 10
-1.058767486995509
 20
-0.7492635541615487
 30
0.0
 10
-1.062142391223813
 20
-0.7404534594342493
 30
0.0
 10
-1.066646989204104
 20
-0.7323050457656824
 30
0.0
 10
-1.071997171411636
 20
-0.7246908074469958
 30
0.0
 10
-1.078499253441242
 20
-0.7178164008919145
 30
0.0
 10
-1.08585152585982
 20
-0.7114445181205312
 30
0.0
 10
-1.094282986301846
 20
-0.7057780485629721
 30
0.0
 10
-1.103797559693218
 20
-0.7008831147734422
 30
0.0
 10
-1.114384945723451
 20
-0.6967921966675671
 30
0.0
 10
-1.125975541999671
 20
-0.6932846221117485
 30
0.0
 10
-1.138654937359167
 20
-0.6907291431475366
 30
0.0
 10
-1.157573525719582
 20
-0.6879523377463254
 30
0.0
 10
-1.17241292586621
 20
-0.6874513362591569
 30
0.0
 10
-1.182608946715554
 20
-0.6872961292663323
 30
0.0
  0
LINE
  5
C2
330
1F
100
AcDbEntity
  8
0
  6
Continuous
 62
     7
370
    25
100
AcDbLine
 10
-1.1826089467
 20
-0.6872961293
 30
0.0
 11
-1.3199791435
 21
-0.6872282608
 31
0.0
  0
LINE
  5
C3
330
1F
100
AcDbEntity
  8
0
  6
Continuous
 62
     7
370
    25
100
AcDbLine
 10
-1.3199791435
 20
-0.6872282608
 30
0.0
 11
-1.3199791435
 21
-0.7020835576
 31
0.0
  0
LINE
  5
C4
330
1F
100
AcDbEntity
  8
0
  6
Continuous
 62
     7
370
    25
100
AcDbLine
 10
-1.2241851088
 20
-0.8567934479
 30
0.0
 11
-1.2241851088
 21
-0.8332986229
 31
0.0
  0
SPLINE
  5
C5
330
1F
100
AcDbEntity
  8
0
  6
Continuous
 62
     7
370
    25
100
AcDbSpline
210
0.0
220
0.0
230
1.0
 70
     8
 71
     2
 72
     6
 73
     3
 74
     0
 42
0.000000001
 43
0.00000001
 40
0.0
 40
0.0
 40
0.0
 40
1.0
 40
1.0
 40
1.0
 10
-1.224185108841098
 20
-0.833298622897976
 30
0.0
 10
-1.2244319910468
 20
-0.768715282595323
 30
0.0
 10
-1.223166020543058
 20
-0.7041439589300191
 30
0.0
  0
LINE
  5
C6
330
1F
100
AcDbEntity
  8
0
  6
Continuous
 62
     7
370
    25
100
AcDbLine
 10
-1.2231660205
 20
-0.7041439589
 30
0.0
 11
-1.1919249702
 21
-0.7040761568
 31
0.0
  0
SPLINE
  5
C7
330
1F
100
AcDbEntity
  8
0
  6
Continuous
 62
     7
370
    25
100
AcDbSpline
210
0.0
220
0.0
230
1.0
 70
     8
 71
     3
 72
    21
 73
    17
 74
     0
 42
0.000000001
 43
0.00000001
 40
0.0
 40
0.0
 40
0.0
 40
0.0
 40
0.162322731954151
 40
0.2358214926709351
 40
0.304745833417787
 40
0.3689344428275589
 40
0.4297889176777324
 40
0.4875764935650864
 40
0.5428984549107275
 40
0.5967222401687641
 40
0.6502197013243243
 40
0.703743630292361
 40
0.7584665374326175
 40
0.814473168221488
 40
0.8732022381524005
 40
1.0
 40
1.0
 40
1.0
 40
1.0
 10
-1.191924970156456
 20
-0.7040761568181386
 30
0.0
 10
-1.184685648643174
 20
-0.7041841496625506
 30
0.0
 10
-1.17415192192578
 20
-0.7047070416604484
 30
0.0
 10
-1.160704481911461
 20
-0.706830311710693
 30
0.0
 10
-1.151737233971425
 20
-0.709005424881449
 30
0.0
 10
-1.143487514535118
 20
-0.7116770944467148
 30
0.0
 10
-1.136071347636149
 20
-0.7151137237609964
 30
0.0
 10
-1.129342165146693
 20
-0.7190184550391044
 30
0.0
 10
-1.123457567842661
 20
-0.7236230485088708
 30
0.0
 10
-1.118309552637053
 20
-0.7287632386277664
 30
0.0
 10
-1.113881879791265
 20
-0.7344345593871444
 30
0.0
 10
-1.110108035078037
 20
-0.7406044331057133
 30
0.0
 10
-1.107035162632448
 20
-0.747281176364448
 30
0.0
 10
-1.104755578672744
 20
-0.7545051142381097
 30
0.0
 10
-1.102384060370341
 20
-0.7650370222225323
 30
0.0
 10
-1.101967257046779
 20
-0.7733604088769318
 30
0.0
 10
-1.101970342639764
 20
-0.7790081052581752
 30
0.0
  0
SPLINE
  5
C8
330
1F
100
AcDbEntity
  8
0
  6
Continuous
 62
     7
370
    25
100
AcDbSpline
210
0.0
220
0.0
230
1.0
 70
     8
 71
     3
 72
    21
 73
    17
 74
     0
 42
0.000000001
 43
0.00000001
 40
0.0
 40
0.0
 40
0.0
 40
0.0
 40
0.1244822983558556
 40
0.1828964928341277
 40
0.2396169027310545
 40
0.2945586840314364
 40
0.3489748742004858
 40
0.4030908054726735
 40
0.4576529785006482
 40
0.5132655281134935
 40
0.5710081711901439
 40
0.6312688664241421
 40
0.6955372977844654
 40
0.7638675764693941
 40
0.8369044253354918
 40
1.0
 40
1.0
 40
1.0
 40
1.0
 10
-1.101970342639763
 20
-0.7790081052581751
 30
0.0
 10
-1.101880267905808
 20
-0.7845710473881378
 30
0.0
 10
-1.102356811429218
 20
-0.7927694834331007
 30
0.0
 10
-1.104475399101592
 20
-0.803287321867747
 30
0.0
 10
-1.106721870074391
 20
-0.8105638787854045
 30
0.0
 10
-1.109585823902037
 20
-0.8174261933357031
 30
0.0
 10
-1.11311567573376
 20
-0.8238454202780944
 30
0.0
 10
-1.117386705559802
 20
-0.829771073882274
 30
0.0
 10
-1.122203984159124
 20
-0.8353292866061055
 30
0.0
 10
-1.127809077364857
 20
-0.8403665891977918
 30
0.0
 10
-1.134339516612049
 20
-0.8445995523740317
 30
0.0
 10
-1.141598748980031
 20
-0.8483414115291279
 30
0.0
 10
-1.14973770830306
 20
-0.8512335537472445
 30
0.0
 10
-1.158589744920793
 20
-0.8537514292051641
 30
0.0
 10
-1.172037268273924
 20
-0.8559931624821143
 30
0.0
 10
-1.182585414707627
 20
-0.8566957157691422
 30
0.0
 10
-1.189877969997871
 20
-0.856793447858664
 30
0.0
  0
LINE
  5
C9
330
1F
100
AcDbEntity
  8
0
  6
Continuous
 62
     7
370
    25
100
AcDbLine
 10
-1.18987797
 20
-0.8567934479
 30
0.0
 11
-1.2241851088
 21
-0.8567934479
 31
0.0
  0
SPLINE
  5
CA
330
1F
100
AcDbEntity
  8
0
  6
Continuous
 62
     7
370
    25
100
AcDbSpline
210
0.0
220
0.0
230
1.0
 70
     8
 71
     3
 72
    13
 73
     9
 74
     0
 42
0.000000001
 43
0.00000001
 40
0.0
 40
0.0
 40
0.0
 40
0.0
 40
0.2691178941966532
 40
0.3938242436898255
 40
0.5152208906892891
 40
0.6334087006275153
 40
0.7505574273970554
 40
1.0
 40
1.0
 40
1.0
 40
1.0
 10
-0.9631116175084107
 20
-0.6612771020034616
 30
0.0
 10
-0.9676682996497438
 20
-0.661448348001302
 30
0.0
 10
-0.9745043990907359
 20
-0.6621559809196701
 30
0.0
 10
-0.9825720717843014
 20
-0.6657926487513682
 30
0.0
 10
-0.987798313831917
 20
-0.6692205974297163
 30
0.0
 10
-0.992102262784415
 20
-0.6736125507275094
 30
0.0
 10
-0.9963271515117604
 20
-0.6808204588751509
 30
0.0
 10
-0.9975521578948155
 20
-0.6871200334713463
 30
0.0
 10
-0.9976224944001559
 20
-0.6913722170881921
 30
0.0
  0
SPLINE
  5
CB
330
1F
100
AcDbEntity
  8
0
  6
Continuous
 62
     7
370
    25
100
AcDbSpline
210
0.0
220
0.0
230
1.0
 70
     8
 71
     3
 72
    13
 73
     9
 74
     0
 42
0.000000001
 43
0.00000001
 40
0.0
 40
0.0
 40
0.0
 40
0.0
 40
0.2429845968202289
 40
0.3584917546730709
 40
0.4792609690846013
 40
0.6028327952598397
 40
0.7287713480683853
 40
1.0
 40
1.0
 40
1.0
 40
1.0
 10
-0.9976224944001559
 20
-0.6913722170881921
 30
0.0
 10
-0.9975197582213287
 20
-0.6954778809864358
 30
0.0
 10
-0.9963305686458278
 20
-0.7016372183864248
 30
0.0
 10
-0.9920208893808595
 20
-0.708617995854268
 30
0.0
 10
-0.9878148591166745
 20
-0.7131106575048174
 30
0.0
 10
-0.9825961093420894
 20
-0.7166906800465751
 30
0.0
 10
-0.9745037689487313
 20
-0.7203665021481775
 30
0.0
 10
-0.96770502081094
 20
-0.721346319556194
 30
0.0
 10
-0.9631116175084107
 20
-0.7213993973758918
 30
0.0
  0
LINE
  5
CC
330
1F
100
AcDbEntity
  8
0
  6
Continuous
 62
     7
370
    25
100
AcDbLine
 10
-0.9631116175
 20
-0.7213993974
 30
0.0
 11
-0.9630440144
 21
-0.7213570708
 31
0.0
  0
SPLINE
  5
CD
330
1F
100
AcDbEntity
  8
0
  6
Continuous
 62
     7
370
    25
100
AcDbSpline
210
0.0
220
0.0
230
1.0
 70
     8
 71
     3
 72
    13
 73
     9
 74
     0
 42
0.000000001
 43
0.00000001
 40
0.0
 40
0.0
 40
0.0
 40
0.0
 40
0.2678575311369394
 40
0.3940987914904144
 40
0.5179676365156377
 40
0.6399463530884618
 40
0.7564313622398141
 40
1.0
 40
1.0
 40
1.0
 40
1.0
 10
-0.9630440144242558
 20
-0.7213570708128978
 30
0.0
 10
-0.9585090791393439
 20
-0.7213629923605035
 30
0.0
 10
-0.9517961235875108
 20
-0.7203286183884097
 30
0.0
 10
-0.9437603301657587
 20
-0.7166948158068633
 30
0.0
 10
-0.938540192342412
 20
-0.7130912442942455
 30
0.0
 10
-0.9342779325514909
 20
-0.7086219596323546
 30
0.0
 10
-0.9298582928435555
 20
-0.7016692183324121
 30
0.0
 10
-0.9287230356730493
 20
-0.695467220465028
 30
0.0
 10
-0.9286007406166654
 20
-0.6913722170881921
 30
0.0
  0
SPLINE
  5
CE
330
1F
100
AcDbEntity
  8
0
  6
Continuous
 62
     7
370
    25
100
AcDbSpline
210
0.0
220
0.0
230
1.0
 70
     8
 71
     3
 72
    13
 73
     9
 74
     0
 42
0.000000001
 43
0.00000001
 40
0.0
 40
0.0
 40
0.0
 40
0.0
 40
0.2496935902720194
 40
0.3676421899673984
 40
0.4868765532279182
 40
0.6083953634292978
 40
0.7332272067258814
 40
1.0
 40
1.0
 40
1.0
 40
1.0
 10
-0.9286007406166654
 20
-0.6913722170881921
 30
0.0
 10
-0.928691826818119
 20
-0.6871308077754618
 30
0.0
 10
-0.9298602537517208
 20
-0.6807889645176639
 30
0.0
 10
-0.9341960237201891
 20
-0.6736070178581126
 30
0.0
 10
-0.9385561259841704
 20
-0.6692399612293342
 30
0.0
 10
-0.9437844910819395
 20
-0.6657889684248862
 30
0.0
 10
-0.9518164546127335
 20
-0.6621810350466977
 30
0.0
 10
-0.9585946712218215
 20
-0.6614352659580227
 30
0.0
 10
-0.9631116175084107
 20
-0.6612771020034616
 30
0.0
  0
LINE
  5
CF
330
1F
100
AcDbEntity
  8
0
  6
Continuous
 62
     7
370
    25
100
AcDbLine
 10
-0.9845110786
 20
-0.880842366
 30
0.0
 11
-0.9844609899
 21
-0.9025369188
 31
0.0
  0
SPLINE
  5
D0
330
1F
100
AcDbEntity
  8
0
  6
Continuous
 62
     7
370
    25
100
AcDbSpline
210
0.0
220
0.0
230
1.0
 70
     8
 71
     3
 72
    11
 73
     7
 74
     0
 42
0.000000001
 43
0.00000001
 40
0.0
 40
0.0
 40
0.0
 40
0.0
 40
0.2285951407849806
 40
0.3536333433529964
 40
0.4860251881626423
 40
1.0
 40
1.0
 40
1.0
 40
1.0
 10
-0.9844609899288785
 20
-0.9025369188470028
 30
0.0
 10
-0.9845061509765556
 20
-0.9081675988198554
 30
0.0
 10
-0.9845179090667193
 20
-0.9168789782282525
 30
0.0
 10
-0.9847237226262114
 20
-0.9288495118744258
 30
0.0
 10
-0.9849776590739479
 20
-0.9478496464798765
 30
0.0
 10
-0.9851595819358583
 20
-0.9637707359608385
 30
0.0
 10
-0.9855301005286389
 20
-0.9764266254302456
 30
0.0
  0
LINE
  5
D1
330
1F
100
AcDbEntity
  8
0
  6
Continuous
 62
     7
370
    25
100
AcDbLine
 10
-0.9855301005
 20
-0.9764266254
 30
0.0
 11
-1.0241990647
 21
-0.9828804311
 31
0.0
  0
LINE
  5
D2
330
1F
100
AcDbEntity
  8
0
  6
Continuous
 62
     7
370
    25
100
AcDbLine
 10
-1.0241990647
 20
-0.9828804311
 30
0.0
 11
-1.0241990647
 21
-0.9997282608
 31
0.0
  0
LINE
  5
D3
330
1F
100
AcDbEntity
  8
0
  6
Continuous
 62
     7
370
    25
100
AcDbLine
 10
-1.0241990647
 20
-0.9997282608
 30
0.0
 11
-0.9044687616
 21
-0.9997282608
 31
0.0
  0
LINE
  5
D4
330
1F
100
AcDbEntity
  8
0
  6
Continuous
 62
     7
370
    25
100
AcDbLine
 10
-0.9044687616
 20
-0.9997282608
 30
0.0
 11
-0.9044687616
 21
-0.9828804311
 31
0.0
  0
LINE
  5
D5
330
1F
100
AcDbEntity
  8
0
  6
Continuous
 62
     7
370
    25
100
AcDbLine
 10
-0.9044687616
 20
-0.9828804311
 30
0.0
 11
-0.9405942841
 21
-0.9764076515
 31
0.0
  0
SPLINE
  5
D6
330
1F
100
AcDbEntity
  8
0
  6
Continuous
 62
     7
370
    25
100
AcDbSpline
210
0.0
220
0.0
230
1.0
 70
     8
 71
     3
 72
    11
 73
     7
 74
     0
 42
0.000000001
 43
0.00000001
 40
0.0
 40
0.0
 40
0.0
 40
0.0
 40
0.514137093564937
 40
0.6463993087758448
 40
0.7713150819597195
 40
1.0
 40
1.0
 40
1.0
 40
1.0
 10
-0.9405942840510964
 20
-0.9764076514537311
 30
0.0
 10
-0.9408463364713847
 20
-0.9637332167943259
 30
0.0
 10
-0.9411934644146991
 20
-0.9477983907832015
 30
0.0
 10
-0.941430394996172
 20
-0.9287815484141219
 30
0.0
 10
-0.9416351101813073
 20
-0.9168033199262703
 30
0.0
 10
-0.9416630951982602
 20
-0.9080842319591101
 30
0.0
 10
-0.9416442216466163
 20
-0.9024456314634923
 30
0.0
  0
LINE
  5
D7
330
1F
100
AcDbEntity
  8
0
  6
Continuous
 62
     7
370
    25
100
AcDbLine
 10
-0.9416442216
 20
-0.9024456315
 30
0.0
 11
-0.9416264418
 21
-0.8414039607
 31
0.0
  0
LINE
  5
D8
330
1F
100
AcDbEntity
  8
0
  6
Continuous
 62
     7
370
    25
100
AcDbLine
 10
-0.9416264418
 20
-0.8414039607
 30
0.0
 11
-0.9400782052
 21
-0.7785325617
 31
0.0
  0
LINE
  5
D9
330
1F
100
AcDbEntity
  8
0
  6
Continuous
 62
     7
370
    25
100
AcDbLine
 10
-0.9400782052
 20
-0.7785325617
 30
0.0
 11
-0.9478193885
 21
-0.7741847347
 31
0.0
  0
LINE
  5
DA
330
1F
100
AcDbEntity
  8
0
  6
Continuous
 62
     7
370
    25
100
AcDbLine
 10
-0.9478193885
 20
-0.7741847347
 30
0.0
 11
-1.027295538
 21
-0.8023384006
 31
0.0
  0
LINE
  5
DB
330
1F
100
AcDbEntity
  8
0
  6
Continuous
 62
     7
370
    25
100
AcDbLine
 10
-1.027295538
 20
-0.8023384006
 30
0.0
 11
-1.027295538
 21
-0.818499452
 31
0.0
  0
LINE
  5
DC
330
1F
100
AcDbEntity
  8
0
  6
Continuous
 62
     7
370
    25
100
AcDbLine
 10
-1.027295538
 20
-0.818499452
 30
0.0
 11
-0.9860092266
 21
-0.8226551509
 31
0.0
  0
SPLINE
  5
DD
330
1F
100
AcDbEntity
  8
0
  6
Continuous
 62
     7
370
    25
100
AcDbSpline
210
0.0
220
0.0
230
1.0
 70
     8
 71
     3
 72
    11
 73
     7
 74
     0
 42
0.000000001
 43
0.00000001
 40
0.0
 40
0.0
 40
0.0
 40
0.0
 40
0.4561562617588738
 40
0.5740405097251846
 40
0.7047588508340057
 40
1.0
 40
1.0
 40
1.0
 40
1.0
 10
-0.986009226606918
 20
-0.8226551508693856
 30
0.0
 10
-0.9855304361249426
 20
-0.8314927219006865
 30
0.0
 10
-0.9849434784019575
 20
-0.8426208317326207
 30
0.0
 10
-0.984715067615084
 20
-0.8562952780774641
 30
0.0
 10
-0.9844965448032917
 20
-0.8668465824174141
 30
0.0
 10
-0.9844991225948262
 20
-0.875113374557676
 30
0.0
 10
-0.9845110785731739
 20
-0.8808423660076361
 30
0.0
  0
LINE
  5
DE
330
1F
100
AcDbEntity
  8
0
  6
Continuous
 62
     7
370
    25
100
AcDbLine
 10
-0.6286006769
 20
-0.902921175
 30
0.0
 11
-0.6285328748
 21
-0.8601438143
 31
0.0
  0
SPLINE
  5
DF
330
1F
100
AcDbEntity
  8
0
  6
Continuous
 62
     7
370
    25
100
AcDbSpline
210
0.0
220
0.0
230
1.0
 70
     8
 71
     3
 72
    21
 73
    17
 74
     0
 42
0.000000001
 43
0.00000001
 40
0.0
 40
0.0
 40
0.0
 40
0.0
 40
0.1690809947381601
 40
0.244738641700808
 40
0.3151821509187713
 40
0.3808435733979512
 40
0.4420530447658473
 40
0.499609876904209
 40
0.5535279597459781
 40
0.6058660119811428
 40
0.6571187850595378
 40
0.7090658631774807
 40
0.7619622949353717
 40
0.8170274946244158
 40
0.8741608591459629
 40
1.0
 40
1.0
 40
1.0
 40
1.0
 10
-0.6285328748159127
 20
-0.8601438142501311
 30
0.0
 10
-0.6286427474812135
 20
-0.8531545994357408
 30
0.0
 10
-0.6290460541286018
 20
-0.8430257994211157
 30
0.0
 10
-0.6306978584883574
 20
-0.8300867665259662
 30
0.0
 10
-0.6324418900423641
 20
-0.8214936636429775
 30
0.0
 10
-0.6347572494420929
 20
-0.8136593421713225
 30
0.0
 10
-0.6375136118767983
 20
-0.8065342492553649
 30
0.0
 10
-0.6408374980513022
 20
-0.8001947256495235
 30
0.0
 10
-0.6446808002375629
 20
-0.7945925759979472
 30
0.0
 10
-0.6490625583916166
 20
-0.7897504311372135
 30
0.0
 10
-0.65393162877147
 20
-0.7855139638454811
 30
0.0
 10
-0.6594215994066098
 20
-0.7820769300198154
 30
0.0
 10
-0.6653865202002046
 20
-0.7791971631836057
 30
0.0
 10
-0.671849275296923
 20
-0.7769346472749863
 30
0.0
 10
-0.6815099859803845
 20
-0.774931527462657
 30
0.0
 10
-0.6890895348482391
 20
-0.7744345444455859
 30
0.0
 10
-0.694293625656765
 20
-0.7744564738570986
 30
0.0
  0
LINE
  5
E0
330
1F
100
AcDbEntity
  8
0
  6
Continuous
 62
     7
370
    25
100
AcDbLine
 10
-0.6942936257
 20
-0.7744564739
 30
0.0
 11
-0.6942879202
 21
-0.774399751
 31
0.0
  0
SPLINE
  5
E1
330
1F
100
AcDbEntity
  8
0
  6
Continuous
 62
     7
370
    25
100
AcDbSpline
210
0.0
220
0.0
230
1.0
 70
     8
 71
     3
 72
    13
 73
     9
 74
     0
 42
0.000000001
 43
0.00000001
 40
0.0
 40
0.0
 40
0.0
 40
0.0
 40
0.2369225870734775
 40
0.3590647236759194
 40
0.4858049183943857
 40
0.6143060756181027
 40
0.7423181231821544
 40
1.0
 40
1.0
 40
1.0
 40
1.0
 10
-0.6942879201952956
 20
-0.7743997509552807
 30
0.0
 10
-0.7025438556215706
 20
-0.7745439264349985
 30
0.0
 10
-0.715039301565516
 20
-0.7761169730946651
 30
0.0
 10
-0.7312753983335292
 20
-0.7810225609925096
 30
0.0
 10
-0.7434133953593104
 20
-0.7861295416078474
 30
0.0
 10
-0.7552399538670934
 20
-0.792359867392547
 30
0.0
 10
-0.7703735347291467
 20
-0.801991371578302
 30
0.0
 10
-0.7806651456058749
 20
-0.8107202907789695
 30
0.0
 10
-0.7870925584011036
 20
-0.8169836567985012
 30
0.0
  0
LINE
  5
E2
330
1F
100
AcDbEntity
  8
0
  6
Continuous
 62
     7
370
    25
100
AcDbLine
 10
-0.7870925584
 20
-0.8169836568
 30
0.0
 11
-0.7911147097
 21
-0.7785325617
 31
0.0
  0
LINE
  5
E3
330
1F
100
AcDbEntity
  8
0
  6
Continuous
 62
     7
370
    25
100
AcDbLine
 10
-0.7911147097
 20
-0.7785325617
 30
0.0
 11
-0.7986916952
 21
-0.774399751
 31
0.0
  0
LINE
  5
E4
330
1F
100
AcDbEntity
  8
0
  6
Continuous
 62
     7
370
    25
100
AcDbLine
 10
-0.7986916952
 20
-0.774399751
 30
0.0
 11
-0.8703078418
 21
-0.8030436885
 31
0.0
  0
LINE
  5
E5
330
1F
100
AcDbEntity
  8
0
  6
Continuous
 62
     7
370
    25
100
AcDbLine
 10
-0.8703078418
 20
-0.8030436885
 30
0.0
 11
-0.8703078418
 21
-0.8192316086
 31
0.0
  0
LINE
  5
E6
330
1F
100
AcDbEntity
  8
0
  6
Continuous
 62
     7
370
    25
100
AcDbLine
 10
-0.8703078418
 20
-0.8192316086
 30
0.0
 11
-0.8295376092
 21
-0.823368798
 31
0.0
  0
SPLINE
  5
E7
330
1F
100
AcDbEntity
  8
0
  6
Continuous
 62
     7
370
    25
100
AcDbSpline
210
0.0
220
0.0
230
1.0
 70
     8
 71
     3
 72
    11
 73
     7
 74
     0
 42
0.000000001
 43
0.00000001
 40
0.0
 40
0.0
 40
0.0
 40
0.0
 40
0.4553084129071624
 40
0.5734755533491949
 40
0.7034548977249261
 40
1.0
 40
1.0
 40
1.0
 40
1.0
 10
-0.829537609234377
 20
-0.8233687979510872
 30
0.0
 10
-0.8290844913578316
 20
-0.8320825994460298
 30
0.0
 10
-0.8284872581001992
 20
-0.843062642881918
 30
0.0
 10
-0.8282621061550509
 20
-0.856544391975401
 30
0.0
 10
-0.8280409049050497
 20
-0.8669824060751544
 30
0.0
 10
-0.8280467431008283
 20
-0.8751586858526796
 30
0.0
 10
-0.8280572410107934
 20
-0.8808423660076361
 30
0.0
  0
LINE
  5
E8
330
1F
100
AcDbEntity
  8
0
  6
Continuous
 62
     7
370
    25
100
AcDbLine
 10
-0.828057241
 20
-0.880842366
 30
0.0
 11
-0.8279893726
 21
-0.9028947707
 31
0.0
  0
SPLINE
  5
E9
330
1F
100
AcDbEntity
  8
0
  6
Continuous
 62
     7
370
    25
100
AcDbSpline
210
0.0
220
0.0
230
1.0
 70
     8
 71
     3
 72
     9
 73
     5
 74
     0
 42
0.000000001
 43
0.00000001
 40
0.0
 40
0.0
 40
0.0
 40
0.0
 40
0.4886029322920689
 40
1.0
 40
1.0
 40
1.0
 40
1.0
 10
-0.8279893725563376
 20
-0.9028947706977696
 30
0.0
 10
-0.8280880071170728
 20
-0.9148827523629496
 30
0.0
 10
-0.8282391034575682
 20
-0.9394192502590751
 30
0.0
 10
-0.8287811005953103
 20
-0.9639503893140278
 30
0.0
 10
-0.8290762629662584
 20
-0.9764945602272763
 30
0.0
  0
LINE
  5
EA
330
1F
100
AcDbEntity
  8
0
  6
Continuous
 62
     7
370
    25
100
AcDbLine
 10
-0.829076263
 20
-0.9764945602
 30
0.0
 11
-0.8672113684
 21
-0.9828804311
 31
0.0
  0
LINE
  5
EB
330
1F
100
AcDbEntity
  8
0
  6
Continuous
 62
     7
370
    25
100
AcDbLine
 10
-0.8672113684
 20
-0.9828804311
 30
0.0
 11
-0.8672113684
 21
-0.9997282608
 31
0.0
  0
LINE
  5
EC
330
1F
100
AcDbEntity
  8
0
  6
Continuous
 62
     7
370
    25
100
AcDbLine
 10
-0.8672113684
 20
-0.9997282608
 30
0.0
 11
-0.7482292105
 21
-0.9997282608
 31
0.0
  0
LINE
  5
ED
330
1F
100
AcDbEntity
  8
0
  6
Continuous
 62
     7
370
    25
100
AcDbLine
 10
-0.7482292105
 20
-0.9997282608
 30
0.0
 11
-0.7482292105
 21
-0.9828804311
 31
0.0
  0
LINE
  5
EE
330
1F
100
AcDbEntity
  8
0
  6
Continuous
 62
     7
370
    25
100
AcDbLine
 10
-0.7482292105
 20
-0.9828804311
 30
0.0
 11
-0.784017182
 21
-0.9764448033
 31
0.0
  0
SPLINE
  5
EF
330
1F
100
AcDbEntity
  8
0
  6
Continuous
 62
     7
370
    25
100
AcDbSpline
210
0.0
220
0.0
230
1.0
 70
     8
 71
     3
 72
    11
 73
     7
 74
     0
 42
0.000000001
 43
0.00000001
 40
0.0
 40
0.0
 40
0.0
 40
0.0
 40
0.5140255230986982
 40
0.6470753589925123
 40
0.7718009728773386
 40
1.0
 40
1.0
 40
1.0
 40
1.0
 10
-0.7840171819839465
 20
-0.9764448032958574
 30
0.0
 10
-0.7843648925128652
 20
-0.9638500222370172
 30
0.0
 10
-0.7846375139593087
 20
-0.9479919469217124
 30
0.0
 10
-0.7849338618515618
 20
-0.9290764642482758
 30
0.0
 10
-0.7849901577752262
 20
-0.9171647784621446
 30
0.0
 10
-0.7850983645439221
 20
-0.9085147640285899
 30
0.0
 10
-0.7850545144901737
 20
-0.9029211750427093
 30
0.0
  0
LINE
  5
F0
330
1F
100
AcDbEntity
  8
0
  6
Continuous
 62
     7
370
    25
100
AcDbLine
 10
-0.7850545145
 20
-0.902921175
 30
0.0
 11
-0.7850545145
 21
-0.835780366
 31
0.0
  0
SPLINE
  5
F1
330
1F
100
AcDbEntity
  8
0
  6
Continuous
 62
     7
370
    25
100
AcDbSpline
210
0.0
220
0.0
230
1.0
 70
     8
 71
     3
 72
    13
 73
     9
 74
     0
 42
0.000000001
 43
0.00000001
 40
0.0
 40
0.0
 40
0.0
 40
0.0
 40
0.2925514957129089
 40
0.4226736063014924
 40
0.544190526779293
 40
0.6598556613436978
 40
0.7731461855245707
 40
1.0
 40
1.0
 40
1.0
 40
1.0
 10
-0.7850545144901737
 20
-0.8357803659520144
 30
0.0
 10
-0.7790230912744477
 20
-0.8312908385514622
 30
0.0
 10
-0.7699487871832793
 20
-0.8252925462168956
 30
0.0
 10
-0.757660848033171
 20
-0.8185965825376214
 30
0.0
 10
-0.749031381947875
 20
-0.8147506842284442
 30
0.0
 10
-0.7405235886493292
 20
-0.8117584136351955
 30
0.0
 10
-0.7291108776649954
 20
-0.8090400685466554
 30
0.0
 10
-0.7203705776936752
 20
-0.8082119667973466
 30
0.0
 10
-0.7145381951720012
 20
-0.8082200679815027
 30
0.0
  0
SPLINE
  5
F2
330
1F
100
AcDbEntity
  8
0
  6
Continuous
 62
     7
370
    25
100
AcDbSpline
210
0.0
220
0.0
230
1.0
 70
     8
 71
     3
 72
    21
 73
    17
 74
     0
 42
0.000000001
 43
0.00000001
 40
0.0
 40
0.0
 40
0.0
 40
0.0
 40
0.1295506980992774
 40
0.1877362247359407
 40
0.2430601297327775
 40
0.2953989016374522
 40
0.3455670993495803
 40
0.3944878262010871
 40
0.4437233840041683
 40
0.4943005683565794
 40
0.5491507583715207
 40
0.6087069162819003
 40
0.6740473395580873
 40
0.7457229395692371
 40
0.8233282260605244
 40
1.0
 40
1.0
 40
1.0
 40
1.0
 10
-0.7145381951720015
 20
-0.8082200679815028
 30
0.0
 10
-0.7110019408209811
 20
-0.808140963021724
 30
0.0
 10
-0.7058508244070378
 20
-0.8083335262079946
 30
0.0
 10
-0.6993113175031395
 20
-0.8095529694212695
 30
0.0
 10
-0.694952280458394
 20
-0.8108263863015361
 30
0.0
 10
-0.6909772776196499
 20
-0.8125276501722914
 30
0.0
 10
-0.6874027175577495
 20
-0.8146403128785031
 30
0.0
 10
-0.6842456015554911
 20
-0.8172007382423553
 30
0.0
 10
-0.6814147257761777
 20
-0.820134797100304
 30
0.0
 10
-0.6789907795199158
 20
-0.8236205260820091
 30
0.0
 10
-0.6769926935424485
 20
-0.8276727807887483
 30
0.0
 10
-0.675201562712079
 20
-0.8322536743838562
 30
0.0
 10
-0.6738007779559352
 20
-0.837449257647607
 30
0.0
 10
-0.6727346731246769
 20
-0.8432207220731724
 30
0.0
 10
-0.6717037360231083
 20
-0.8520746392244368
 30
0.0
 10
-0.6715638168265688
 20
-0.8590339922739414
 30
0.0
 10
-0.6715354686513817
 20
-0.8638586667498874
 30
0.0
  0
LINE
  5
F3
330
1F
100
AcDbEntity
  8
0
  6
Continuous
 62
     7
370
    25
100
AcDbLine
 10
-0.6715354687
 20
-0.8638586667
 30
0.0
 11
-0.6714676665
 21
-0.9028947707
 31
0.0
  0
SPLINE
  5
F4
330
1F
100
AcDbEntity
  8
0
  6
Continuous
 62
     7
370
    25
100
AcDbSpline
210
0.0
220
0.0
230
1.0
 70
     8
 71
     3
 72
     9
 73
     5
 74
     0
 42
0.000000001
 43
0.00000001
 40
0.0
 40
0.0
 40
0.0
 40
0.0
 40
0.4932168876080291
 40
1.0
 40
1.0
 40
1.0
 40
1.0
 10
-0.6714676665395013
 20
-0.9028947706977696
 30
0.0
 10
-0.6715653102095688
 20
-0.9149959797364648
 30
0.0
 10
-0.6717135637415858
 20
-0.9395325309944133
 30
0.0
 10
-0.6722550352257014
 20
-0.9640637137092162
 30
0.0
 10
-0.6725544906068467
 20
-0.9764945602272764
 30
0.0
  0
LINE
  5
F5
330
1F
100
AcDbEntity
  8
0
  6
Continuous
 62
     7
370
    25
100
AcDbLine
 10
-0.6725544906
 20
-0.9764945602
 30
0.0
 11
-0.7108852403
 21
-0.9828804311
 31
0.0
  0
LINE
  5
F6
330
1F
100
AcDbEntity
  8
0
  6
Continuous
 62
     7
370
    25
100
AcDbLine
 10
-0.7108852403
 20
-0.9828804311
 30
0.0
 11
-0.7108852403
 21
-0.9997282608
 31
0.0
  0
LINE
  5
F7
330
1F
100
AcDbEntity
  8
0
  6
Continuous
 62
     7
370
    25
100
AcDbLine
 10
-0.7108852403
 20
-0.9997282608
 30
0.0
 11
-0.5913751945
 21
-0.9997282608
 31
0.0
  0
LINE
  5
F8
330
1F
100
AcDbEntity
  8
0
  6
Continuous
 62
     7
370
    25
100
AcDbLine
 10
-0.5913751945
 20
-0.9997282608
 30
0.0
 11
-0.5913751945
 21
-0.9828804311
 31
0.0
  0
LINE
  5
F9
330
1F
100
AcDbEntity
  8
0
  6
Continuous
 62
     7
370
    25
100
AcDbLine
 10
-0.5913751945
 20
-0.9828804311
 30
0.0
 11
-0.627500717
 21
-0.9764448033
 31
0.0
  0
SPLINE
  5
FA
330
1F
100
AcDbEntity
  8
0
  6
Continuous
 62
     7
370
    25
100
AcDbSpline
210
0.0
220
0.0
230
1.0
 70
     8
 71
     3
 72
     9
 73
     5
 74
     0
 42
0.000000001
 43
0.00000001
 40
0.0
 40
0.0
 40
0.0
 40
0.0
 40
0.5094045421291677
 40
1.0
 40
1.0
 40
1.0
 40
1.0
 10
-0.627500717030553
 20
-0.9764448032958574
 30
0.0
 10
-0.627810949308596
 20
-0.9639627623306604
 30
0.0
 10
-0.6283516933999149
 20
-0.9394568604625055
 30
0.0
 10
-0.6285037512326644
 20
-0.9149456612516886
 30
0.0
 10
-0.6286006769277933
 20
-0.9029211750427095
 30
0.0
  0
SPLINE
  5
FB
330
1F
100
AcDbEntity
  8
0
  6
Continuous
 62
     7
370
    25
100
AcDbSpline
210
0.0
220
0.0
230
1.0
 70
     8
 71
     3
 72
    21
 73
    17
 74
     0
 42
0.000000001
 43
0.00000001
 40
0.0
 40
0.0
 40
0.0
 40
0.0
 40
0.1129739038307642
 40
0.1665169497431441
 40
0.2194644528617772
 40
0.2718756817909382
 40
0.32524616431067
 40
0.3795695752491161
 40
0.4362916664315922
 40
0.4949697034759215
 40
0.5559886489305179
 40
0.6200047746605712
 40
0.6870754325183874
 40
0.7587080269144678
 40
0.8342673577302255
 40
1.0
 40
1.0
 40
1.0
 40
1.0
 10
-0.4116848700078273
 20
-0.7997961531496596
 30
0.0
 10
-0.4069270877698004
 20
-0.7998643124460799
 30
0.0
 10
-0.3998786015101264
 20
-0.8004782264171868
 30
0.0
 10
-0.3909426387058405
 20
-0.8029863781661495
 30
0.0
 10
-0.3847462940124227
 20
-0.8055801798839823
 30
0.0
 10
-0.378898542748946
 20
-0.8088723736634374
 30
0.0
 10
-0.3734585051303478
 20
-0.8129013520889026
 30
0.0
 10
-0.3683852446856718
 20
-0.8176488290842706
 30
0.0
 10
-0.3637039416691155
 20
-0.8230824389144886
 30
0.0
 10
-0.3594763190243116
 20
-0.8292237637880785
 30
0.0
 10
-0.3558045370958587
 20
-0.8360638040111251
 30
0.0
 10
-0.3526997870775719
 20
-0.8435594449707654
 30
0.0
 10
-0.3500990714852436
 20
-0.851715398285386
 30
0.0
 10
-0.3481048300762955
 20
-0.8605379851966489
 30
0.0
 10
-0.3460216393653022
 20
-0.8735819775003144
 30
0.0
 10
-0.3456111823389592
 20
-0.8837802326185243
 30
0.0
 10
-0.3454484429026076
 20
-0.8907608463741613
 30
0.0
  0
SPLINE
  5
FC
330
1F
100
AcDbEntity
  8
0
  6
Continuous
 62
     7
370
    25
100
AcDbSpline
210
0.0
220
0.0
230
1.0
 70
     8
 71
     3
 72
    21
 73
    17
 74
     0
 42
0.000000001
 43
0.00000001
 40
0.0
 40
0.0
 40
0.0
 40
0.0
 40
0.1674253583525104
 40
0.2436575813976727
 40
0.3149820913109595
 40
0.3823703723216736
 40
0.4463097514668274
 40
0.5070961840856021
 40
0.5659263474413437
 40
0.6231965205430645
 40
0.6780395369712333
 40
0.731709028365364
 40
0.7844679543918901
 40
0.837271662538756
 40
0.8901424727457107
 40
1.0
 40
1.0
 40
1.0
 40
1.0
 10
-0.3454484429026076
 20
-0.8907608463741613
 30
0.0
 10
-0.3455574879863757
 20
-0.8977327050864937
 30
0.0
 10
-0.3462278176986567
 20
-0.9078889306171646
 30
0.0
 10
-0.34855161619318
 20
-0.920817583561374
 30
0.0
 10
-0.3508004408932935
 20
-0.9294917364005594
 30
0.0
 10
-0.3535259345370579
 20
-0.9374983259071336
 30
0.0
 10
-0.3570217900418187
 20
-0.9447181769821099
 30
0.0
 10
-0.3610451116281059
 20
-0.9512375199110864
 30
0.0
 10
-0.3656169957081661
 20
-0.9570379262288324
 30
0.0
 10
-0.3706295245294861
 20
-0.9621169808783301
 30
0.0
 10
-0.3759861593765474
 20
-0.9664946470379873
 30
0.0
 10
-0.381563343561087
 20
-0.9702561628230291
 30
0.0
 10
-0.3874398170334145
 20
-0.9733771961425852
 30
0.0
 10
-0.3936588481826352
 20
-0.9756255937587106
 30
0.0
 10
-0.4023310383081826
 20
-0.9780212614000549
 30
0.0
 10
-0.4091619523088887
 20
-0.978446896625144
 30
0.0
 10
-0.4137229139187572
 20
-0.9785326041382063
 30
0.0
  0
LINE
  5
FD
330
1F
100
AcDbEntity
  8
0
  6
Continuous
 62
     7
370
    25
100
AcDbLine
 10
-0.4137229139
 20
-0.9785326041
 30
0.0
 11
-0.4136590924
 21
-0.9785326041
 31
0.0
  0
SPLINE
  5
FE
330
1F
100
AcDbEntity
  8
0
  6
Continuous
 62
     7
370
    25
100
AcDbSpline
210
0.0
220
0.0
230
1.0
 70
     8
 71
     3
 72
    13
 73
     9
 74
     0
 42
0.000000001
 43
0.00000001
 40
0.0
 40
0.0
 40
0.0
 40
0.0
 40
0.2223740014485289
 40
0.3378193938987251
 40
0.457888852974452
 40
0.5829068895221677
 40
0.7141596175799851
 40
1.0
 40
1.0
 40
1.0
 40
1.0
 10
-0.4136590923613901
 20
-0.9785326041382063
 30
0.0
 10
-0.4187897163028471
 20
-0.9787355161654646
 30
0.0
 10
-0.4265666994251641
 20
-0.9779450843637245
 30
0.0
 10
-0.4368325213701593
 20
-0.975456543245871
 30
0.0
 10
-0.4446354664734822
 20
-0.9725923916963797
 30
0.0
 10
-0.4525822665852863
 20
-0.9691077080372572
 30
0.0
 10
-0.4633823699208779
 20
-0.9628107239810163
 30
0.0
 10
-0.4712436852548814
 20
-0.9572759181343405
 30
0.0
 10
-0.4763587967813342
 20
-0.9531249900486144
 30
0.0
  0
LINE
  5
FF
330
1F
100
AcDbEntity
  8
0
  6
Continuous
 62
     7
370
    25
100
AcDbLine
 10
-0.4763587968
 20
-0.95312499
 30
0.0
 11
-0.4763587968
 21
-0.8265314149
 31
0.0
  0
SPLINE
  5
100
330
1F
100
AcDbEntity
  8
0
  6
Continuous
 62
     7
370
    25
100
AcDbSpline
210
0.0
220
0.0
230
1.0
 70
     8
 71
     3
 72
    13
 73
     9
 74
     0
 42
0.000000001
 43
0.00000001
 40
0.0
 40
0.0
 40
0.0
 40
0.0
 40
0.3313899078176498
 40
0.4727505868346973
 40
0.5984912330542868
 40
0.712314596287633
 40
0.8165177536407223
 40
1.0
 40
1.0
 40
1.0
 40
1.0
 10
-0.4763587967813342
 20
-0.8265314148546659
 30
0.0
 10
-0.4699561720856046
 20
-0.8219857563560831
 30
0.0
 10
-0.4607046962148247
 20
-0.8155975614350843
 30
0.0
 10
-0.44814692026916
 20
-0.8089457850075967
 30
0.0
 10
-0.4398439895141813
 20
-0.8053599348931274
 30
0.0
 10
-0.432110878427807
 20
-0.8027440002065488
 30
0.0
 10
-0.422856118680597
 20
-0.8004622615196431
 30
0.0
 10
-0.4160490493838806
 20
-0.7996366989600385
 30
0.0
 10
-0.4116848700078273
 20
-0.7997961531496597
 30
0.0
  0
LINE
  5
101
330
1F
100
AcDbEntity
  8
0
  6
Continuous
 62
     7
370
    25
100
AcDbLine
 10
-0.5188860461
 20
-0.6960948796
 30
0.0
 11
-0.5188860461
 21
-0.9031770584
 31
0.0
  0
SPLINE
  5
102
330
1F
100
AcDbEntity
  8
0
  6
Continuous
 62
     7
370
    25
100
AcDbSpline
210
0.0
220
0.0
230
1.0
 70
     8
 71
     3
 72
     9
 73
     5
 74
     0
 42
0.000000001
 43
0.00000001
 40
0.0
 40
0.0
 40
0.0
 40
0.0
 40
0.4887993050741193
 40
1.0
 40
1.0
 40
1.0
 40
1.0
 10
-0.5188860460653121
 20
-0.9031770583553544
 30
0.0
 10
-0.5189848797405011
 20
-0.9154559068118844
 30
0.0
 10
-0.5191358028958654
 20
-0.9405775802581188
 30
0.0
 10
-0.5196769396909434
 20
-0.9656940401974512
 30
0.0
 10
-0.5199729364752327
 20
-0.9785326041382063
 30
0.0
  0
LINE
  5
103
330
1F
100
AcDbEntity
  8
0
  6
Continuous
 62
     7
370
    25
100
AcDbLine
 10
-0.5199729365
 20
-0.9785326041
 30
0.0
 11
-0.5586241208
 21
-0.9830219399
 31
0.0
  0
LINE
  5
104
330
1F
100
AcDbEntity
  8
0
  6
Continuous
 62
     7
370
    25
100
AcDbLine
 10
-0.5586241208
 20
-0.9830219399
 30
0.0
 11
-0.5586241208
 21
-0.9997283272
 31
0.0
  0
LINE
  5
105
330
1F
100
AcDbEntity
  8
0
  6
Continuous
 62
     7
370
    25
100
AcDbLine
 10
-0.5586241208
 20
-0.9997283272
 30
0.0
 11
-0.4809265494
 21
-1.0040761542
 31
0.0
  0
LINE
  5
106
330
1F
100
AcDbEntity
  8
0
  6
Continuous
 62
     7
370
    25
100
AcDbLine
 10
-0.4809265494
 20
-1.0040761542
 30
0.0
 11
-0.4767664056
 21
-0.9725264781
 31
0.0
  0
SPLINE
  5
107
330
1F
100
AcDbEntity
  8
0
  6
Continuous
 62
     7
370
    25
100
AcDbSpline
210
0.0
220
0.0
230
1.0
 70
     8
 71
     3
 72
    13
 73
     9
 74
     0
 42
0.000000001
 43
0.00000001
 40
0.0
 40
0.0
 40
0.0
 40
0.0
 40
0.2844783383828196
 40
0.4141743581755312
 40
0.5368769612319776
 40
0.6558885236133044
 40
0.7719467857917929
 40
1.0
 40
1.0
 40
1.0
 40
1.0
 10
-0.4767664055635202
 20
-0.9725264781178842
 30
0.0
 10
-0.4715965818920535
 20
-0.9781407746079843
 30
0.0
 10
-0.4633360134444118
 20
-0.9856808922353724
 30
0.0
 10
-0.4511605026853969
 20
-0.9934573124598397
 30
0.0
 10
-0.4420762502024798
 20
-0.9976320367208266
 30
0.0
 10
-0.43292282088032
 20
-1.000578729366299
 30
0.0
 10
-0.4208075639293257
 20
-1.003413039524907
 30
0.0
 10
-0.4115593746153972
 20
-1.004234533648096
 30
0.0
 10
-0.4054348686809758
 20
-1.00407608782186
 30
0.0
  0
SPLINE
  5
108
330
1F
100
AcDbEntity
  8
0
  6
Continuous
 62
     7
370
    25
100
AcDbSpline
210
0.0
220
0.0
230
1.0
 70
     8
 71
     3
 72
    21
 73
    17
 74
     0
 42
0.000000001
 43
0.00000001
 40
0.0
 40
0.0
 40
0.0
 40
0.0
 40
0.1261475821723724
 40
0.1857254613312357
 40
0.2440451632294602
 40
0.3011435934001835
 40
0.3584092575494431
 40
0.4161058955707876
 40
0.4751033682207469
 40
0.5349825456145095
 40
0.5953725997402152
 40
0.6568108873187145
 40
0.7197230266208586
 40
0.7850749480966845
 40
0.8534945721955526
 40
1.0
 40
1.0
 40
1.0
 40
1.0
 10
-0.4054348686809758
 20
-1.00407608782186
 30
0.0
 10
-0.3980626270114013
 20
-1.004071854964367
 30
0.0
 10
-0.387248355913931
 20
-1.002887534087845
 30
0.0
 10
-0.3733793461314139
 20
-0.9995403280020337
 30
0.0
 10
-0.3637935913945765
 20
-0.9959636040080634
 30
0.0
 10
-0.3547103761760766
 20
-0.9915516284335815
 30
0.0
 10
-0.3462892832366868
 20
-0.986047305728913
 30
0.0
 10
-0.338318941911924
 20
-0.9797284951969852
 30
0.0
 10
-0.3310988330143019
 20
-0.9723480070087063
 30
0.0
 10
-0.3244738065352955
 20
-0.9642288622832135
 30
0.0
 10
-0.3187807641518235
 20
-0.9552581789415696
 30
0.0
 10
-0.3138583254623381
 20
-0.9456504714274155
 30
0.0
 10
-0.3098346500607404
 20
-0.9353162624112409
 30
0.0
 10
-0.3067338039037345
 20
-0.9242501311196755
 30
0.0
 10
-0.3036076853504702
 20
-0.9081808558306643
 30
0.0
 10
-0.3026018240343057
 20
-0.8956419276068011
 30
0.0
 10
-0.302513651179019
 20
-0.8870923673344876
 30
0.0
  0
SPLINE
  5
109
330
1F
100
AcDbEntity
  8
0
  6
Continuous
 62
     7
370
    25
100
AcDbSpline
210
0.0
220
0.0
230
1.0
 70
     8
 71
     3
 72
    21
 73
    17
 74
     0
 42
0.000000001
 43
0.00000001
 40
0.0
 40
0.0
 40
0.0
 40
0.0
 40
0.154304920415958
 40
0.225641082373156
 40
0.2931815864179063
 40
0.3575402280267043
 40
0.4197074777395331
 40
0.4803425741431178
 40
0.5395791873255184
 40
0.597572258956824
 40
0.6541208543569698
 40
0.7100761121020245
 40
0.7656408656009209
 40
0.8215540381563737
 40
0.8791383083456623
 40
1.0
 40
1.0
 40
1.0
 40
1.0
 10
-0.302513651179019
 20
-0.8870923673344876
 30
0.0
 10
-0.3026941335691877
 20
-0.8785791983471538
 30
0.0
 10
-0.3034902308396725
 20
-0.8661033519825281
 30
0.0
 10
-0.3064717340530027
 20
-0.8501733885704476
 30
0.0
 10
-0.3093557324966432
 20
-0.839312647604145
 30
0.0
 10
-0.3131083508816626
 20
-0.8292545714219618
 30
0.0
 10
-0.3176682500357305
 20
-0.8199598751963875
 30
0.0
 10
-0.3230365713993181
 20
-0.8114343555116318
 30
0.0
 10
-0.3291861713737369
 20
-0.8037542789113583
 30
0.0
 10
-0.3358837882763942
 20
-0.7968528336826859
 30
0.0
 10
-0.343232921687435
 20
-0.7909377485836401
 30
0.0
 10
-0.3509738850507982
 20
-0.7857892768783603
 30
0.0
 10
-0.3592530834646583
 20
-0.781615290274972
 30
0.0
 10
-0.3680479883213539
 20
-0.77843510455339
 30
0.0
 10
-0.3805948903065077
 20
-0.7751663758617722
 30
0.0
 10
-0.3904818328694789
 20
-0.774346874488664
 30
0.0
 10
-0.3971468234431945
 20
-0.7742526694660055
 30
0.0
  0
SPLINE
  5
10A
330
1F
100
AcDbEntity
  8
0
  6
Continuous
 62
     7
370
    25
100
AcDbSpline
210
0.0
220
0.0
230
1.0
 70
     8
 71
     3
 72
    13
 73
     9
 74
     0
 42
0.000000001
 43
0.00000001
 40
0.0
 40
0.0
 40
0.0
 40
0.0
 40
0.2358569439470449
 40
0.3538937522116795
 40
0.4744081897689526
 40
0.5977036657081461
 40
0.7259814895816568
 40
1.0
 40
1.0
 40
1.0
 40
1.0
 10
-0.3971468234431945
 20
-0.7742526694660055
 30
0.0
 10
-0.4041572805839653
 20
-0.774180955022292
 30
0.0
 10
-0.4147132933850595
 20
-0.7750691581478062
 30
0.0
 10
-0.4283904566504327
 20
-0.7786440363307066
 30
0.0
 10
-0.4384627333679675
 20
-0.7824792900237738
 30
0.0
 10
-0.4483827734542017
 20
-0.7874152169947175
 30
0.0
 10
-0.4616639309922635
 20
-0.7956993790712319
 30
0.0
 10
-0.4708392830458802
 20
-0.8034552918554925
 30
0.0
 10
-0.4767664055635202
 20
-0.8090352855458747
 30
0.0
  0
LINE
  5
10B
330
1F
100
AcDbEntity
  8
0
  6
Continuous
 62
     7
370
    25
100
AcDbLine
 10
-0.4767664056
 20
-0.8090352855
 30
0.0
 11
-0.4767664056
 21
-0.7253910311
 31
0.0
  0
LINE
  5
10C
330
1F
100
AcDbEntity
  8
0
  6
Continuous
 62
     7
370
    25
100
AcDbLine
 10
-0.4767664056
 20
-0.7253910311
 30
0.0
 11
-0.4746973133
 21
-0.6567934717
 31
0.0
  0
LINE
  5
10D
330
1F
100
AcDbEntity
  8
0
  6
Continuous
 62
     7
370
    25
100
AcDbLine
 10
-0.4746973133
 20
-0.6567934717
 30
0.0
 11
-0.4819665356
 21
-0.6524456447
 31
0.0
  0
LINE
  5
10E
330
1F
100
AcDbEntity
  8
0
  6
Continuous
 62
     7
370
    25
100
AcDbLine
 10
-0.4819665356
 20
-0.6524456447
 30
0.0
 11
-0.5612045153
 21
-0.6742685041
 31
0.0
  0
LINE
  5
10F
330
1F
100
AcDbEntity
  8
0
  6
Continuous
 62
     7
370
    25
100
AcDbLine
 10
-0.5612045153
 20
-0.6742685041
 30
0.0
 11
-0.5612045153
 21
-0.691244574
 31
0.0
  0
LINE
  5
110
330
1F
100
AcDbEntity
  8
0
  6
Continuous
 62
     7
370
    25
100
AcDbLine
 10
-0.5612045153
 20
-0.691244574
 30
0.0
 11
-0.5188860461
 21
-0.6960948796
 31
0.0
  0
SPLINE
  5
111
330
1F
100
AcDbEntity
  8
0
  6
Continuous
 62
     7
370
    25
100
AcDbSpline
210
0.0
220
0.0
230
1.0
 70
     8
 71
     3
 72
    13
 73
     9
 74
     0
 42
0.000000001
 43
0.00000001
 40
0.0
 40
0.0
 40
0.0
 40
0.0
 40
0.242698747455984
 40
0.354977936502783
 40
0.4652667662505033
 40
0.5808753397700159
 40
0.7074465961320204
 40
1.0
 40
1.0
 40
1.0
 40
1.0
 10
-0.1832201475925924
 20
-1.00407608782186
 30
0.0
 10
-0.1761268211422094
 20
-1.004108201780042
 30
0.0
 10
-0.1657241532680946
 20
-1.003086807563071
 30
0.0
 10
-0.152622857891981
 20
-0.9992881633977363
 30
0.0
 10
-0.1435938725352842
 20
-0.9951957249829743
 30
0.0
 10
-0.1347204639073131
 20
-0.9899392367706168
 30
0.0
 10
-0.1218198123402479
 20
-0.9811008420047709
 30
0.0
 10
-0.1123550053499297
 20
-0.9732882735958223
 30
0.0
 10
-0.1059782833683515
 20
-0.9675951018162162
 30
0.0
  0
SPLINE
  5
112
330
1F
100
AcDbEntity
  8
0
  6
Continuous
 62
     7
370
    25
100
AcDbSpline
210
0.0
220
0.0
230
1.0
 70
     8
 71
     3
 72
    13
 73
     9
 74
     0
 42
0.000000001
 43
0.00000001
 40
0.0
 40
0.0
 40
0.0
 40
0.0
 40
0.2456556614950682
 40
0.3612866562442518
 40
0.4787465501678401
 40
0.599073884682185
 40
0.7239066751070705
 40
1.0
 40
1.0
 40
1.0
 40
1.0
 10
-0.1059782833683515
 20
-0.9675951018162162
 30
0.0
 10
-0.1058576754202891
 20
-0.9727007083962744
 30
0.0
 10
-0.1041578618724193
 20
-0.9801434050739
 30
0.0
 10
-0.0991407870575595
 20
-0.9888103681505419
 30
0.0
 10
-0.0939159714088144
 20
-0.9940359501902393
 30
0.0
 10
-0.087677607870833
 20
-0.9983000160729497
 30
0.0
 10
-0.0776578445916559
 20
-1.002512907733378
 30
0.0
 10
-0.069304243652905
 20
-1.003654914375463
 30
0.0
 10
-0.0635869700210108
 20
-1.003668479039674
 30
0.0
  0
LINE
  5
113
330
1F
100
AcDbEntity
  8
0
  6
Continuous
 62
     7
370
    25
100
AcDbLine
 10
-0.06358697
 20
-1.003668479
 30
0.0
 11
-0.063534493
 21
-1.003668479
 31
0.0
  0
SPLINE
  5
114
330
1F
100
AcDbEntity
  8
0
  6
Continuous
 62
     7
370
    25
100
AcDbSpline
210
0.0
220
0.0
230
1.0
 70
     8
 71
     3
 72
    13
 73
     9
 74
     0
 42
0.000000001
 43
0.00000001
 40
0.0
 40
0.0
 40
0.0
 40
0.0
 40
0.2408278459819581
 40
0.3565645771435882
 40
0.4721837001915302
 40
0.5908699585369399
 40
0.7165704574742291
 40
1.0
 40
1.0
 40
1.0
 40
1.0
 10
-0.0635344930440074
 20
-1.003668479039674
 30
0.0
 10
-0.0592313480371604
 20
-1.003683973320914
 30
0.0
 10
-0.0528103053679955
 20
-1.003196218530614
 30
0.0
 10
-0.0446604813704951
 20
-1.000868204839533
 30
0.0
 10
-0.0388766296466305
 20
-0.998414814746014
 30
0.0
 10
-0.0333525865668544
 20
-0.9950417422119545
 30
0.0
 10
-0.026165424521978
 20
-0.9888634814028943
 30
0.0
 10
-0.0214795771609138
 20
-0.9831766321216178
 30
0.0
 10
-0.0186820691835234
 20
-0.9789402129203923
 30
0.0
  0
LINE
  5
115
330
1F
100
AcDbEntity
  8
0
  6
Continuous
 62
     7
370
    25
100
AcDbLine
 10
-0.0186820692
 20
-0.9789402129
 30
0.0
 11
-0.0289572072
 21
-0.9686052339
 31
0.0
  0
SPLINE
  5
116
330
1F
100
AcDbEntity
  8
0
  6
Continuous
 62
     7
370
    25
100
AcDbSpline
210
0.0
220
0.0
230
1.0
 70
     8
 71
     3
 72
     9
 73
     5
 74
     0
 42
0.000000001
 43
0.00000001
 40
0.0
 40
0.0
 40
0.0
 40
0.0
 40
0.5020969610900132
 40
1.0
 40
1.0
 40
1.0
 40
1.0
 10
-0.0289572072344613
 20
-0.9686052338666009
 30
0.0
 10
-0.0314130592297683
 20
-0.9716136086889597
 30
0.0
 10
-0.0374159072144826
 20
-0.9769738207313576
 30
0.0
 10
-0.0452693364677214
 20
-0.9787269534448532
 30
0.0
 10
-0.049116858253409
 20
-0.9789402129203923
 30
0.0
  0
SPLINE
  5
117
330
1F
100
AcDbEntity
  8
0
  6
Continuous
 62
     7
370
    25
100
AcDbSpline
210
0.0
220
0.0
230
1.0
 70
     8
 71
     3
 72
    13
 73
     9
 74
     0
 42
0.000000001
 43
0.00000001
 40
0.0
 40
0.0
 40
0.0
 40
0.0
 40
0.2082635947768607
 40
0.3075297199471078
 40
0.4092392888949118
 40
0.5236126906549139
 40
0.6577590057912132
 40
1.0
 40
1.0
 40
1.0
 40
1.0
 10
-0.049116858253409
 20
-0.9789402129203923
 30
0.0
 10
-0.0517389444598494
 20
-0.9790149518496621
 30
0.0
 10
-0.0556683900243816
 20
-0.9783093226290654
 30
0.0
 10
-0.060120928783673
 20
-0.9755899564516758
 30
0.0
 10
-0.0628578294308953
 20
-0.9726541382500291
 30
0.0
 10
-0.0650778315415437
 20
-0.9687950062265591
 30
0.0
 10
-0.0672209167366849
 20
-0.9616223722253072
 30
0.0
 10
-0.0677671396504064
 20
-0.955605127076896
 30
0.0
 10
-0.0677309926399015
 20
-0.9512907505287774
 30
0.0
  0
LINE
  5
118
330
1F
100
AcDbEntity
  8
0
  6
Continuous
 62
     7
370
    25
100
AcDbLine
 10
-0.0677309926
 20
-0.9512907505
 30
0.0
 11
-0.0676631242
 21
-0.8511622901
 31
0.0
  0
SPLINE
  5
119
330
1F
100
AcDbEntity
  8
0
  6
Continuous
 62
     7
370
    25
100
AcDbSpline
210
0.0
220
0.0
230
1.0
 70
     8
 71
     3
 72
    21
 73
    17
 74
     0
 42
0.000000001
 43
0.00000001
 40
0.0
 40
0.0
 40
0.0
 40
0.0
 40
0.1567755422580498
 40
0.2264241278041199
 40
0.2908724868227248
 40
0.35090938886131
 40
0.4064382265887089
 40
0.4593737915949617
 40
0.5101790086009577
 40
0.5606812370620808
 40
0.6134980620227216
 40
0.668850737119862
 40
0.7266498001798961
 40
0.7884163679459263
 40
0.8545317701055871
 40
1.0
 40
1.0
 40
1.0
 40
1.0
 10
-0.0676631241854457
 20
-0.8511622900735166
 30
0.0
 10
-0.0677360076666707
 20
-0.8444484370230211
 30
0.0
 10
-0.0681575542673307
 20
-0.8347197326841959
 30
0.0
 10
-0.0702160608102747
 20
-0.8224094311181049
 30
0.0
 10
-0.0722746492627215
 20
-0.8143290156500564
 30
0.0
 10
-0.0750737076956589
 20
-0.8071218801781515
 30
0.0
 10
-0.0783850096362012
 20
-0.8006773995310288
 30
0.0
 10
-0.0824370066629299
 20
-0.7951523396770398
 30
0.0
 10
-0.0870321291184328
 20
-0.7903621143123485
 30
0.0
 10
-0.092344708669392
 20
-0.7864005706070991
 30
0.0
 10
-0.098189824500438
 20
-0.7828929490750508
 30
0.0
 10
-0.1047501890735888
 20
-0.7800940204075879
 30
0.0
 10
-0.1118841657626393
 20
-0.7777620725316396
 30
0.0
 10
-0.119659045299053
 20
-0.7759922840650989
 30
0.0
 10
-0.1312913629598223
 20
-0.7744965770454211
 30
0.0
 10
-0.1403637456994378
 20
-0.7740472947413607
 30
0.0
 10
-0.1466032919928863
 20
-0.7742526694660057
 30
0.0
  0
SPLINE
  5
11A
330
1F
100
AcDbEntity
  8
0
  6
Continuous
 62
     7
370
    25
100
AcDbSpline
210
0.0
220
0.0
230
1.0
 70
     8
 71
     3
 72
    21
 73
    17
 74
     0
 42
0.000000001
 43
0.00000001
 40
0.0
 40
0.0
 40
0.0
 40
0.0
 40
0.1564110251618564
 40
0.2296225682459152
 40
0.2993875180798699
 40
0.3666249915136324
 40
0.4314879346575843
 40
0.4942573184095925
 40
0.5547302608958021
 40
0.6132863802610387
 40
0.6702133316401253
 40
0.7249378321329633
 40
0.7792390575593369
 40
0.8333259117008008
 40
0.887511124625555
 40
1.0
 40
1.0
 40
1.0
 40
1.0
 10
-0.1466032919928862
 20
-0.7742526694660055
 30
0.0
 10
-0.1528374727761703
 20
-0.774252528615897
 30
0.0
 10
-0.1619962442666216
 20
-0.7746133025473583
 30
0.0
 10
-0.1738550753583628
 20
-0.7759937634439089
 30
0.0
 10
-0.1821223834223682
 20
-0.7773962462022407
 30
0.0
 10
-0.1899439715690403
 20
-0.7793136972333091
 30
0.0
 10
-0.1973672470641074
 20
-0.7816171649031268
 30
0.0
 10
-0.2043703290689435
 20
-0.7843176495467236
 30
0.0
 10
-0.2109110299219707
 20
-0.7874523033468402
 30
0.0
 10
-0.2169984282978997
 20
-0.790958908867408
 30
0.0
 10
-0.222479653498987
 20
-0.7949765130445303
 30
0.0
 10
-0.2274572507785186
 20
-0.7993519609262634
 30
0.0
 10
-0.2318022760855401
 20
-0.804206905686674
 30
0.0
 10
-0.2356405489404205
 20
-0.8094435827965178
 30
0.0
 10
-0.2399678431001357
 20
-0.8171298836619987
 30
0.0
 10
-0.2422687551937777
 20
-0.8234014803489192
 30
0.0
 10
-0.2434783125590846
 20
-0.8277173547293983
 30
0.0
  0
SPLINE
  5
11B
330
1F
100
AcDbEntity
  8
0
  6
Continuous
 62
     7
370
    25
100
AcDbSpline
210
0.0
220
0.0
230
1.0
 70
     8
 71
     3
 72
    13
 73
     9
 74
     0
 42
0.000000001
 43
0.00000001
 40
0.0
 40
0.0
 40
0.0
 40
0.0
 40
0.2592303011033314
 40
0.3745217930294864
 40
0.4879469158884119
 40
0.6002862475996418
 40
0.7228453710042526
 40
1.0
 40
1.0
 40
1.0
 40
1.0
 10
-0.2434783125590846
 20
-0.8277173547293983
 30
0.0
 10
-0.2431254187988434
 20
-0.8305459972855777
 30
0.0
 10
-0.2420833615673111
 20
-0.8346084026002673
 30
0.0
 10
-0.2393269975538565
 20
-0.8392695889987445
 30
0.0
 10
-0.2367077192791487
 20
-0.8420047955000225
 30
0.0
 10
-0.2335284511055411
 20
-0.8442006296029608
 30
0.0
 10
-0.2282648233248005
 20
-0.8463373531666786
 30
0.0
 10
-0.2238308949691145
 20
-0.8468560895577016
 30
0.0
 10
-0.2207880903507324
 20
-0.8469429022891698
 30
0.0
  0
SPLINE
  5
11C
330
1F
100
AcDbEntity
  8
0
  6
Continuous
 62
     7
370
    25
100
AcDbSpline
210
0.0
220
0.0
230
1.0
 70
     8
 71
     3
 72
    13
 73
     9
 74
     0
 42
0.000000001
 43
0.00000001
 40
0.0
 40
0.0
 40
0.0
 40
0.0
 40
0.242248676651804
 40
0.3559116692830321
 40
0.4704212976687467
 40
0.5876077370485217
 40
0.7147534817762587
 40
1.0
 40
1.0
 40
1.0
 40
1.0
 10
-0.2207880903507324
 20
-0.8469429022891698
 30
0.0
 10
-0.2177869023474172
 20
-0.8469987859354781
 30
0.0
 10
-0.2134444975927262
 20
-0.8461240668063039
 30
0.0
 10
-0.2081296618049434
 20
-0.8437478445087196
 30
0.0
 10
-0.2047213924335011
 20
-0.8411614642873569
 30
0.0
 10
-0.2016594463073509
 20
-0.8379605081886532
 30
0.0
 10
-0.1979872602166742
 20
-0.8325408095309258
 30
0.0
 10
-0.1961930057874105
 20
-0.8277356459646851
 30
0.0
 10
-0.1951766718700474
 20
-0.8243885496748796
 30
0.0
  0
LINE
  5
11D
330
1F
100
AcDbEntity
  8
0
  6
Continuous
 62
     7
370
    25
100
AcDbLine
 10
-0.1951766719
 20
-0.8243885497
 30
0.0
 11
-0.1855305941
 21
-0.7938501335
 31
0.0
  0
SPLINE
  5
11E
330
1F
100
AcDbEntity
  8
0
  6
Continuous
 62
     7
370
    25
100
AcDbSpline
210
0.0
220
0.0
230
1.0
 70
     8
 71
     3
 72
     9
 73
     5
 74
     0
 42
0.000000001
 43
0.00000001
 40
0.0
 40
0.0
 40
0.0
 40
0.0
 40
0.5424419886216514
 40
1.0
 40
1.0
 40
1.0
 40
1.0
 10
-0.1855305941173984
 20
-0.7938501335024917
 30
0.0
 10
-0.1806432935899835
 20
-0.7929452716635665
 30
0.0
 10
-0.1715946615080568
 20
-0.7913776738826034
 30
0.0
 10
-0.1624151924929888
 20
-0.790936466229331
 30
0.0
 10
-0.1582201422851864
 20
-0.7911004991296923
 30
0.0
  0
SPLINE
  5
11F
330
1F
100
AcDbEntity
  8
0
  6
Continuous
 62
     7
370
    25
100
AcDbSpline
210
0.0
220
0.0
230
1.0
 70
     8
 71
     3
 72
    21
 73
    17
 74
     0
 42
0.000000001
 43
0.00000001
 40
0.0
 40
0.0
 40
0.0
 40
0.0
 40
0.1336048326506376
 40
0.1936443497394632
 40
0.2500441961405072
 40
0.303381094143615
 40
0.3532853967768309
 40
0.4026375758153594
 40
0.4501414515943515
 40
0.4990100779626242
 40
0.5528243240103656
 40
0.6112290363628735
 40
0.6746854609570431
 40
0.7455406509802351
 40
0.8234561607187252
 40
1.0
 40
1.0
 40
1.0
 40
1.0
 10
-0.1582201422851864
 20
-0.7911004991296923
 30
0.0
 10
-0.1543473316488047
 20
-0.7909811911327539
 30
0.0
 10
-0.1487079465930396
 20
-0.7911093906309375
 30
0.0
 10
-0.1415284425452135
 20
-0.7922243593780709
 30
0.0
 10
-0.136743114817858
 20
-0.7934351385469025
 30
0.0
 10
-0.1323978257167407
 20
-0.7950647227895324
 30
0.0
 10
-0.1284248494197844
 20
-0.7970478028539003
 30
0.0
 10
-0.124920925167016
 20
-0.7994915482416544
 30
0.0
 10
-0.1217621581995974
 20
-0.8023238311897181
 30
0.0
 10
-0.119040857299395
 20
-0.8057583243829135
 30
0.0
 10
-0.1167807253309392
 20
-0.8098663567267884
 30
0.0
 10
-0.1147968916866605
 20
-0.8145729355224539
 30
0.0
 10
-0.1132522132994079
 20
-0.8199596525271056
 30
0.0
 10
-0.1120584186641352
 20
-0.8260059634249938
 30
0.0
 10
-0.110828264724103
 20
-0.8353740242327201
 30
0.0
 10
-0.1106763892514976
 20
-0.8427752067776628
 30
0.0
 10
-0.1106657843634901
 20
-0.8478939894476036
 30
0.0
  0
LINE
  5
120
330
1F
100
AcDbEntity
  8
0
  6
Continuous
 62
     7
370
    25
100
AcDbLine
 10
-0.1106657844
 20
-0.8478939894
 30
0.0
 11
-0.1105979823
 21
-0.859618182
 31
0.0
  0
SPLINE
  5
121
330
1F
100
AcDbEntity
  8
0
  6
Continuous
 62
     7
370
    25
100
AcDbSpline
210
0.0
220
0.0
230
1.0
 70
     8
 71
     3
 72
     9
 73
     5
 74
     0
 42
0.000000001
 43
0.00000001
 40
0.0
 40
0.0
 40
0.0
 40
0.0
 40
0.5267397357640509
 40
1.0
 40
1.0
 40
1.0
 40
1.0
 10
-0.1105979822516096
 20
-0.8596181820266188
 30
0.0
 10
-0.1207990872121473
 20
-0.8617626496447778
 30
0.0
 10
-0.1400069761019239
 20
-0.8665455077968993
 30
0.0
 10
-0.1589643736600578
 20
-0.8722305299515033
 30
0.0
 10
-0.1678668834635876
 20
-0.8751358430570325
 30
0.0
  0
SPLINE
  5
122
330
1F
100
AcDbEntity
  8
0
  6
Continuous
 62
     7
370
    25
100
AcDbSpline
210
0.0
220
0.0
230
1.0
 70
     8
 71
     3
 72
    21
 73
    17
 74
     0
 42
0.000000001
 43
0.00000001
 40
0.0
 40
0.0
 40
0.0
 40
0.0
 40
0.2068183195050036
 40
0.2986876324090512
 40
0.3825982727012932
 40
0.4587281221851316
 40
0.5270036095901142
 40
0.5888437818184367
 40
0.6438884637571757
 40
0.6943378835098505
 40
0.7422697326214841
 40
0.7875027121217345
 40
0.831156033638636
 40
0.8740514822057461
 40
0.9161551445854581
 40
1.0
 40
1.0
 40
1.0
 40
1.0
 10
-0.1678668834635876
 20
-0.8751358430570325
 30
0.0
 10
-0.1754090092461714
 20
-0.8778333529830483
 30
0.0
 10
-0.1862988833498285
 20
-0.8817768489533601
 30
0.0
 10
-0.1998833356850971
 20
-0.88771839897411
 30
0.0
 10
-0.2086701813985022
 20
-0.8919745568021402
 30
0.0
 10
-0.2164156666228974
 20
-0.896254824018836
 30
0.0
 10
-0.2232168766138966
 20
-0.900456887084253
 30
0.0
 10
-0.2290153823915047
 20
-0.9047013596587178
 30
0.0
 10
-0.2338254118874737
 20
-0.9090593118638047
 30
0.0
 10
-0.2379258333200512
 20
-0.9133762160378104
 30
0.0
 10
-0.2412896233694465
 20
-0.9178164760587584
 30
0.0
 10
-0.2442254900077284
 20
-0.9222399426716823
 30
0.0
 10
-0.2464708974736068
 20
-0.9268412893200968
 30
0.0
 10
-0.2481703993780509
 20
-0.931534414642754
 30
0.0
 10
-0.2497536128883755
 20
-0.937899299528325
 30
0.0
 10
-0.2499552504927794
 20
-0.9428199280402155
 30
0.0
 10
-0.2497962486829671
 20
-0.9460597711573909
 30
0.0
  0
SPLINE
  5
123
330
1F
100
AcDbEntity
  8
0
  6
Continuous
 62
     7
370
    25
100
AcDbSpline
210
0.0
220
0.0
230
1.0
 70
     8
 71
     3
 72
    21
 73
    17
 74
     0
 42
0.000000001
 43
0.00000001
 40
0.0
 40
0.0
 40
0.0
 40
0.0
 40
0.1385208524158321
 40
0.2017903456622458
 40
0.2627749293323083
 40
0.3218742882783089
 40
0.3796840226156261
 40
0.4376059934031787
 40
0.4960422692363505
 40
0.5551887068082016
 40
0.6146636513204051
 40
0.674414853971661
 40
0.7351669839196142
 40
0.797776806915707
 40
0.8627215248678316
 40
1.0
 40
1.0
 40
1.0
 40
1.0
 10
-0.2497962486829671
 20
-0.9460597711573909
 30
0.0
 10
-0.2496505407370554
 20
-0.9506576572341011
 30
0.0
 10
-0.2490243926583066
 20
-0.9573752735125778
 30
0.0
 10
-0.2468571043195351
 20
-0.9658528128602153
 30
0.0
 10
-0.2447809884270923
 20
-0.9715985111704268
 30
0.0
 10
-0.2420404496476432
 20
-0.9768610355587105
 30
0.0
 10
-0.238733981327196
 20
-0.9816528665581009
 30
0.0
 10
-0.2349505322399156
 20
-0.9860639132464729
 30
0.0
 10
-0.2304617187712395
 20
-0.989818610856559
 30
0.0
 10
-0.2256585255752974
 20
-0.9932311465259424
 30
0.0
 10
-0.2204810992086104
 20
-0.9961474828495731
 30
0.0
 10
-0.2150101589468213
 20
-0.9985854510024652
 30
0.0
 10
-0.2092773459186829
 20
-1.000655138187679
 30
0.0
 10
-0.2032032138921006
 20
-1.00221289905118
 30
0.0
 10
-0.1945087879577873
 20
-1.003648782410033
 30
0.0
 10
-0.1877878860080279
 20
-1.004127939317678
 30
0.0
 10
-0.1832201475925924
 20
-1.00407608782186
 30
0.0
  0
SPLINE
  5
124
330
1F
100
AcDbEntity
  8
0
  6
Continuous
 62
     7
370
    25
100
AcDbSpline
210
0.0
220
0.0
230
1.0
 70
     8
 71
     3
 72
    13
 73
     9
 74
     0
 42
0.000000001
 43
0.00000001
 40
0.0
 40
0.0
 40
0.0
 40
0.0
 40
0.3543207365022218
 40
0.4940959004712638
 40
0.6085420129297778
 40
0.7095032075774923
 40
0.8065098035805419
 40
1.0
 40
1.0
 40
1.0
 40
1.0
 10
-0.1105979822516096
 20
-0.9497014477966735
 30
0.0
 10
-0.1166077399915001
 20
-0.9538641195830398
 30
0.0
 10
-0.1252684202914863
 20
-0.9592249297999567
 30
0.0
 10
-0.136047876148635
 20
-0.9656556732822912
 30
0.0
 10
-0.1425815959554092
 20
-0.9689721130378862
 30
0.0
 10
-0.1485198149912144
 20
-0.9714972219701001
 30
0.0
 10
-0.1563128832699969
 20
-0.9736748688974021
 30
0.0
 10
-0.1623084520493334
 20
-0.9743200955245371
 30
0.0
 10
-0.1663043831318747
 20
-0.9741847771282227
 30
0.0
  0
SPLINE
  5
125
330
1F
100
AcDbEntity
  8
0
  6
Continuous
 62
     7
370
    25
100
AcDbSpline
210
0.0
220
0.0
230
1.0
 70
     8
 71
     3
 72
    13
 73
     9
 74
     0
 42
0.000000001
 43
0.00000001
 40
0.0
 40
0.0
 40
0.0
 40
0.0
 40
0.2685885394204023
 40
0.3888323072658195
 40
0.5036698433980186
 40
0.6159265548500478
 40
0.7311551763353002
 40
1.0
 40
1.0
 40
1.0
 40
1.0
 10
-0.1663043831318747
 20
-0.9741847771282227
 30
0.0
 10
-0.1717405792750968
 20
-0.9742936821425977
 30
0.0
 10
-0.1796743887352644
 20
-0.9734756212504814
 30
0.0
 10
-0.1893313678490283
 20
-0.9700244655382513
 30
0.0
 10
-0.1954220261304126
 20
-0.9664110784571327
 30
0.0
 10
-0.200512569820932
 20
-0.9615779938246699
 30
0.0
 10
-0.2055231608152274
 20
-0.9527166139813655
 30
0.0
 10
-0.2067796084918844
 20
-0.9448327968171014
 30
0.0
 10
-0.2067935221623475
 20
-0.9394021610483534
 30
0.0
  0
LINE
  5
126
330
1F
100
AcDbEntity
  8
0
  6
Continuous
 62
     7
370
    25
100
AcDbLine
 10
-0.2067935222
 20
-0.939402161
 30
0.0
 11
-0.2067935222
 21
-0.9393431162
 31
0.0
  0
SPLINE
  5
127
330
1F
100
AcDbEntity
  8
0
  6
Continuous
 62
     7
370
    25
100
AcDbSpline
210
0.0
220
0.0
230
1.0
 70
     8
 71
     3
 72
    17
 73
    13
 74
     0
 42
0.000000001
 43
0.00000001
 40
0.0
 40
0.0
 40
0.0
 40
0.0
 40
0.1533161179848229
 40
0.2421976930113026
 40
0.3411482761257613
 40
0.3966002458643763
 40
0.4590712126606282
 40
0.5293202170740313
 40
0.6071079000642293
 40
0.6923081304468167
 40
0.7856529877425014
 40
1.0
 40
1.0
 40
1.0
 40
1.0
 10
-0.2067935221623475
 20
-0.9393431161564026
 30
0.0
 10
-0.2071697976768133
 20
-0.9355503290186536
 30
0.0
 10
-0.2060987663699181
 20
-0.9295622240538575
 30
0.0
 10
-0.2025415406603233
 20
-0.9219142614230422
 30
0.0
 10
-0.1992360012020524
 20
-0.9168921459537854
 30
0.0
 10
-0.1958122125733212
 20
-0.912778843859026
 30
0.0
 10
-0.1923580260528865
 20
-0.9096685524933928
 30
0.0
 10
-0.1881965662212652
 20
-0.9065714237464789
 30
0.0
 10
-0.1833735118401394
 20
-0.9034420406997328
 30
0.0
 10
-0.1778318416371232
 20
-0.9004103320436989
 30
0.0
 10
-0.1691566720453768
 20
-0.8961190925359354
 30
0.0
 10
-0.1621309594229447
 20
-0.8932548832575808
 30
0.0
 10
-0.1572011203297214
 20
-0.8913722595474401
 30
0.0
  0
SPLINE
  5
128
330
1F
100
AcDbEntity
  8
0
  6
Continuous
 62
     7
370
    25
100
AcDbSpline
210
0.0
220
0.0
230
1.0
 70
     8
 71
     3
 72
    11
 73
     7
 74
     0
 42
0.000000001
 43
0.00000001
 40
0.0
 40
0.0
 40
0.0
 40
0.0
 40
0.2005055013454309
 40
0.3179831951743739
 40
0.4452010931820637
 40
1.0
 40
1.0
 40
1.0
 40
1.0
 10
-0.1572011203297214
 20
-0.8913722595474403
 30
0.0
 10
-0.1541327906039896
 20
-0.8902970425805798
 30
0.0
 10
-0.1492431416890324
 20
-0.8886611066994372
 30
0.0
 10
-0.1423816565323952
 20
-0.8864175295467751
 30
0.0
 10
-0.1299949925834174
 20
-0.8825917628864123
 30
0.0
 10
-0.1193514146754593
 20
-0.879583295618413
 30
0.0
 10
-0.1106657843634901
 20
-0.8772418217649934
 30
0.0
  0
LINE
  5
129
330
1F
100
AcDbEntity
  8
0
  6
Continuous
 62
     7
370
    25
100
AcDbLine
 10
-0.1106657844
 20
-0.8772418218
 30
0.0
 11
-0.1105979823
 21
-0.9497014478
 31
0.0
  0
LINE
  5
12A
330
1F
100
AcDbEntity
  8
0
  6
Continuous
 62
     7
370
    25
100
AcDbLine
 10
0.1311771837
 20
-0.9828804311
 30
0.0
 11
0.0898908723
 21
-0.9762999111
 31
0.0
  0
SPLINE
  5
12B
330
1F
100
AcDbEntity
  8
0
  6
Continuous
 62
     7
370
    25
100
AcDbSpline
210
0.0
220
0.0
230
1.0
 70
     8
 71
     2
 72
     6
 73
     3
 74
     0
 42
0.000000001
 43
0.00000001
 40
0.0
 40
0.0
 40
0.0
 40
1.0
 40
1.0
 40
1.0
 10
0.0898908723019008
 20
-0.9762999111115647
 30
0.0
 10
0.0888863318774236
 20
-0.9387340993286818
 30
0.0
 10
0.0888587145165413
 20
-0.9011548703199035
 30
0.0
  0
LINE
  5
12C
330
1F
100
AcDbEntity
  8
0
  6
Continuous
 62
     7
370
    25
100
AcDbLine
 10
0.0888587145
 20
-0.9011548703
 30
0.0
 11
0.0888587145
 21
-0.7229498897
 31
0.0
  0
LINE
  5
12D
330
1F
100
AcDbEntity
  8
0
  6
Continuous
 62
     7
370
    25
100
AcDbLine
 10
0.0888587145
 20
-0.7229498897
 30
0.0
 11
0.0909230301
 21
-0.6567934717
 31
0.0
  0
LINE
  5
12E
330
1F
100
AcDbEntity
  8
0
  6
Continuous
 62
     7
370
    25
100
AcDbLine
 10
0.0909230301
 20
-0.6567934717
 30
0.0
 11
0.0837454932
 21
-0.6524456447
 31
0.0
  0
LINE
  5
12F
330
1F
100
AcDbEntity
  8
0
  6
Continuous
 62
     7
370
    25
100
AcDbLine
 10
0.0837454932
 20
-0.6524456447
 30
0.0
 11
0.0036053873
 21
-0.6735959894
 31
0.0
  0
LINE
  5
130
330
1F
100
AcDbEntity
  8
0
  6
Continuous
 62
     7
370
    25
100
AcDbLine
 10
0.0036053873
 20
-0.6735959894
 30
0.0
 11
0.0036053873
 21
-0.6900472895
 31
0.0
  0
LINE
  5
131
330
1F
100
AcDbEntity
  8
0
  6
Continuous
 62
     7
370
    25
100
AcDbLine
 10
0.0036053873
 20
-0.6900472895
 30
0.0
 11
0.0459238565
 21
-0.694747661
 31
0.0
  0
LINE
  5
132
330
1F
100
AcDbEntity
  8
0
  6
Continuous
 62
     7
370
    25
100
AcDbLine
 10
0.0459238565
 20
-0.694747661
 30
0.0
 11
0.0459238565
 21
-0.9010939678
 31
0.0
  0
SPLINE
  5
133
330
1F
100
AcDbEntity
  8
0
  6
Continuous
 62
     7
370
    25
100
AcDbSpline
210
0.0
220
0.0
230
1.0
 70
     8
 71
     2
 72
     6
 73
     3
 74
     0
 42
0.000000001
 43
0.00000001
 40
0.0
 40
0.0
 40
0.0
 40
1.0
 40
1.0
 40
1.0
 10
0.0459238564503774
 20
-0.9010939678358464
 30
0.0
 10
0.0457839823874015
 20
-0.9387321489813706
 30
0.0
 10
0.0448369660404567
 20
-0.9763586906332146
 30
0.0
  0
LINE
  5
134
330
1F
100
AcDbEntity
  8
0
  6
Continuous
 62
     7
370
    25
100
AcDbLine
 10
0.044836966
 20
-0.9763586906
 30
0.0
 11
0.0036053873
 21
-0.9828804311
 31
0.0
  0
LINE
  5
135
330
1F
100
AcDbEntity
  8
0
  6
Continuous
 62
     7
370
    25
100
AcDbLine
 10
0.0036053873
 20
-0.9828804311
 30
0.0
 11
0.0036053873
 21
-0.9997282608
 31
0.0
  0
LINE
  5
136
330
1F
100
AcDbEntity
  8
0
  6
Continuous
 62
     7
370
    25
100
AcDbLine
 10
0.0036053873
 20
-0.9997282608
 30
0.0
 11
0.1311771837
 21
-0.9997282608
 31
0.0
  0
LINE
  5
137
330
1F
100
AcDbEntity
  8
0
  6
Continuous
 62
     7
370
    25
100
AcDbLine
 10
0.1311771837
 20
-0.9997282608
 30
0.0
 11
0.1311771837
 21
-0.9828804311
 31
0.0
  0
LINE
  5
138
330
1F
100
AcDbEntity
  8
0
  6
Continuous
 62
     7
370
    25
100
AcDbLine
 10
0.2833511291
 20
-0.9828804311
 30
0.0
 11
0.2420648177
 21
-0.9762999111
 31
0.0
  0
SPLINE
  5
139
330
1F
100
AcDbEntity
  8
0
  6
Continuous
 62
     7
370
    25
100
AcDbSpline
210
0.0
220
0.0
230
1.0
 70
     8
 71
     2
 72
     6
 73
     3
 74
     0
 42
0.000000001
 43
0.00000001
 40
0.0
 40
0.0
 40
0.0
 40
1.0
 40
1.0
 40
1.0
 10
0.2420648176513284
 20
-0.9762999111115647
 30
0.0
 10
0.2410602772268512
 20
-0.9387340993286818
 30
0.0
 10
0.2410326598659688
 20
-0.9011548703199035
 30
0.0
  0
LINE
  5
13A
330
1F
100
AcDbEntity
  8
0
  6
Continuous
 62
     7
370
    25
100
AcDbLine
 10
0.2410326599
 20
-0.9011548703
 30
0.0
 11
0.2410326599
 21
-0.7229498897
 31
0.0
  0
LINE
  5
13B
330
1F
100
AcDbEntity
  8
0
  6
Continuous
 62
     7
370
    25
100
AcDbLine
 10
0.2410326599
 20
-0.7229498897
 30
0.0
 11
0.2430969754
 21
-0.6567934717
 31
0.0
  0
LINE
  5
13C
330
1F
100
AcDbEntity
  8
0
  6
Continuous
 62
     7
370
    25
100
AcDbLine
 10
0.2430969754
 20
-0.6567934717
 30
0.0
 11
0.2359194386
 21
-0.6524456447
 31
0.0
  0
LINE
  5
13D
330
1F
100
AcDbEntity
  8
0
  6
Continuous
 62
     7
370
    25
100
AcDbLine
 10
0.2359194386
 20
-0.6524456447
 30
0.0
 11
0.1557793326
 21
-0.6735959894
 31
0.0
  0
LINE
  5
13E
330
1F
100
AcDbEntity
  8
0
  6
Continuous
 62
     7
370
    25
100
AcDbLine
 10
0.1557793326
 20
-0.6735959894
 30
0.0
 11
0.1557793326
 21
-0.6900472895
 31
0.0
  0
LINE
  5
13F
330
1F
100
AcDbEntity
  8
0
  6
Continuous
 62
     7
370
    25
100
AcDbLine
 10
0.1557793326
 20
-0.6900472895
 30
0.0
 11
0.1980978018
 21
-0.694747661
 31
0.0
  0
LINE
  5
140
330
1F
100
AcDbEntity
  8
0
  6
Continuous
 62
     7
370
    25
100
AcDbLine
 10
0.1980978018
 20
-0.694747661
 30
0.0
 11
0.1980978018
 21
-0.9010939678
 31
0.0
  0
SPLINE
  5
141
330
1F
100
AcDbEntity
  8
0
  6
Continuous
 62
     7
370
    25
100
AcDbSpline
210
0.0
220
0.0
230
1.0
 70
     8
 71
     2
 72
     6
 73
     3
 74
     0
 42
0.000000001
 43
0.00000001
 40
0.0
 40
0.0
 40
0.0
 40
1.0
 40
1.0
 40
1.0
 10
0.198097801799805
 20
-0.9010939678358464
 30
0.0
 10
0.197957927736829
 20
-0.9387321489813704
 30
0.0
 10
0.1970109113898843
 20
-0.9763586906332146
 30
0.0
  0
LINE
  5
142
330
1F
100
AcDbEntity
  8
0
  6
Continuous
 62
     7
370
    25
100
AcDbLine
 10
0.1970109114
 20
-0.9763586906
 30
0.0
 11
0.1557793326
 21
-0.9828804311
 31
0.0
  0
LINE
  5
143
330
1F
100
AcDbEntity
  8
0
  6
Continuous
 62
     7
370
    25
100
AcDbLine
 10
0.1557793326
 20
-0.9828804311
 30
0.0
 11
0.1557793326
 21
-0.9997282608
 31
0.0
  0
LINE
  5
144
330
1F
100
AcDbEntity
  8
0
  6
Continuous
 62
     7
370
    25
100
AcDbLine
 10
0.1557793326
 20
-0.9997282608
 30
0.0
 11
0.2833511291
 21
-0.9997282608
 31
0.0
  0
LINE
  5
145
330
1F
100
AcDbEntity
  8
0
  6
Continuous
 62
     7
370
    25
100
AcDbLine
 10
0.2833511291
 20
-0.9997282608
 30
0.0
 11
0.2833511291
 21
-0.9828804311
 31
0.0
  0
MTEXT
  5
147
330
1F
100
AcDbEntity
  8
0
  6
Continuous
 62
     7
100
AcDbMText
 10
-2.4366852999
 20
-1.0461866061
 30
0.0
 40
0.1903
 41
0.0
 71
     1
 72
     1
  1
SOLIDWORKS Educational Product.
  7
SLDTEXTSTYLE0
 73
     1
 44
1.0
  0
MTEXT
  5
148
330
1F
100
AcDbEntity
  8
0
  6
Continuous
 62
     7
100
AcDbMText
 10
-2.4366852999
 20
-1.3316366061
 30
0.0
 40
0.1903
 41
0.0
 71
     1
 72
     1
  1
For Instructional Use Only.
  7
SLDTEXTSTYLE0
 73
     1
 44
1.0
  0
ENDSEC
  0
SECTION
  2
OBJECTS
  0
DICTIONARY
  5
C
330
0
100
AcDbDictionary
281
     1
  3
ACAD_GROUP
350
D
  3
ACAD_LAYOUT
350
1A
  3
ACAD_MLINESTYLE
350
17
  3
ACAD_PLOTSETTINGS
350
19
  3
ACAD_PLOTSTYLENAME
350
E
  3
ACAD_SCALELIST
350
47
  0
DICTIONARY
  5
D
102
{ACAD_REACTORS
330
C
102
}
330
C
100
AcDbDictionary
281
     1
  0
DICTIONARY
  5
1A
102
{ACAD_REACTORS
330
C
102
}
330
C
100
AcDbDictionary
281
     1
  3
Layout1
350
1E
  3
Layout2
350
26
  3
Model
350
22
  0
DICTIONARY
  5
17
102
{ACAD_REACTORS
330
C
102
}
330
C
100
AcDbDictionary
281
     1
  3
Standard
350
18
  0
DICTIONARY
  5
19
102
{ACAD_REACTORS
330
C
102
}
330
C
100
AcDbDictionary
281
     1
  0
ACDBDICTIONARYWDFLT
  5
E
102
{ACAD_REACTORS
330
C
102
}
330
C
100
AcDbDictionary
281
     1
  3
Normal
350
F
100
AcDbDictionaryWithDefault
340
F
  0
DICTIONARY
  5
47
102
{ACAD_REACTORS
330
C
102
}
330
C
100
AcDbDictionary
281
     1
  3
A0
350
48
  3
A1
350
49
  3
A2
350
4A
  3
A3
350
4B
  3
A4
350
4C
  3
A5
350
4D
  3
A6
350
4E
  3
A7
350
4F
  3
A8
350
50
  3
A9
350
51
  3
B0
350
52
  3
B1
350
53
  3
B2
350
54
  3
B3
350
55
  3
B4
350
56
  3
B5
350
57
  3
B6
350
58
  3
B7
350
59
  3
B8
350
5A
  3
B9
350
5B
  3
C0
350
5C
  3
C1
350
5D
  3
C2
350
5E
  3
C3
350
5F
  3
C4
350
60
  3
C5
350
61
  3
C6
350
62
  3
C7
350
63
  3
C8
350
64
  3
C9
350
65
  3
D0
350
66
  3
D1
350
67
  3
D2
350
68
  0
LAYOUT
  5
1E
102
{ACAD_REACTORS
330
1A
102
}
330
1A
100
AcDbPlotSettings
  1

  2
none_device
  4

  6

 40
0.0
 41
0.0
 42
0.0
 43
0.0
 44
0.0
 45
0.0
 46
0.0
 47
0.0
 48
0.0
 49
0.0
140
0.0
141
0.0
142
1.0
143
1.0
 70
   688
 72
     0
 73
     0
 74
     5
  7

 75
    16
147
1.0
148
0.0
149
0.0
100
AcDbLayout
  1
Layout1
 70
     1
 71
     1
 10
0.0
 20
0.0
 11
12.0
 21
9.0
 12
0.0
 22
0.0
 32
0.0
 14
1.0000000000E+20
 24
1.0000000000E+20
 34
1.0000000000E+20
 15
-1.0000000000E+20
 25
-1.0000000000E+20
 35
-1.0000000000E+20
146
0.0
 13
0.0
 23
0.0
 33
0.0
 16
1.0
 26
0.0
 36
0.0
 17
0.0
 27
1.0
 37
0.0
 76
     0
330
1B
  0
LAYOUT
  5
26
102
{ACAD_REACTORS
330
1A
102
}
330
1A
100
AcDbPlotSettings
  1

  2
none_device
  4

  6

 40
0.0
 41
0.0
 42
0.0
 43
0.0
 44
0.0
 45
0.0
 46
0.0
 47
0.0
 48
0.0
 49
0.0
140
0.0
141
0.0
142
1.0
143
1.0
 70
   688
 72
     0
 73
     0
 74
     5
  7

 75
    16
147
1.0
148
0.0
149
0.0
100
AcDbLayout
  1
Layout2
 70
     1
 71
     2
 10
0.0
 20
0.0
 11
0.0
 21
0.0
 12
0.0
 22
0.0
 32
0.0
 14
0.0
 24
0.0
 34
0.0
 15
0.0
 25
0.0
 35
0.0
146
0.0
 13
0.0
 23
0.0
 33
0.0
 16
1.0
 26
0.0
 36
0.0
 17
0.0
 27
1.0
 37
0.0
 76
     0
330
23
  0
LAYOUT
  5
22
102
{ACAD_REACTORS
330
1A
102
}
330
1A
100
AcDbPlotSettings
  1

  2
none_device
  4
ANSI_A_(11.00_x_8.50_Inches)
  6

 40
6.35
 41
19.05
 42
6.35000508
 43
19.05000254
 44
279.4
 45
215.9
 46
242.8384486652
 47
173.2276918208
 48
0.0
 49
0.0
140
0.0
141
0.0
142
4.00362285
143
1.0
 70
  1696
 72
     0
 73
     0
 74
     0
  7

 75
     0
147
0.5913241897
148
-39.4088153714
149
0.0
100
AcDbLayout
  1
Model
 70
     1
 71
     0
 10
0.0
 20
0.0
 11
12.0
 21
9.0
 12
0.0
 22
0.0
 32
0.0
 14
-2.4366852999
 24
-1.0060461969
 34
0.0
 15
0.2833511291
 25
-0.6524456447
 35
0.0
146
0.0
 13
0.0
 23
0.0
 33
0.0
 16
1.0
 26
0.0
 36
0.0
 17
0.0
 27
1.0
 37
0.0
 76
     0
330
1F
331
29
  0
MLINESTYLE
  5
18
102
{ACAD_REACTORS
330
17
102
}
330
17
100
AcDbMlineStyle
  2
Standard
 70
     0
  3

 62
   256
 51
90.0
 52
90.0
 71
     2
 49
0.5
 62
   256
  6
BYLAYER
 49
-0.5
 62
   256
  6
BYLAYER
  0
ACDBPLACEHOLDER
  5
F
102
{ACAD_REACTORS
330
E
102
}
330
E
  0
SCALE
  5
48
102
{ACAD_REACTORS
330
47
102
}
330
47
100
AcDbScale
 70
     0
300
1:1
140
1.0
141
1.0
290
     1
  0
SCALE
  5
49
102
{ACAD_REACTORS
330
47
102
}
330
47
100
AcDbScale
 70
     0
300
1:2
140
1.0
141
2.0
290
     0
  0
SCALE
  5
4A
102
{ACAD_REACTORS
330
47
102
}
330
47
100
AcDbScale
 70
     0
300
1:4
140
1.0
141
4.0
290
     0
  0
SCALE
  5
4B
102
{ACAD_REACTORS
330
47
102
}
330
47
100
AcDbScale
 70
     0
300
1:5
140
1.0
141
5.0
290
     0
  0
SCALE
  5
4C
102
{ACAD_REACTORS
330
47
102
}
330
47
100
AcDbScale
 70
     0
300
1:8
140
1.0
141
8.0
290
     0
  0
SCALE
  5
4D
102
{ACAD_REACTORS
330
47
102
}
330
47
100
AcDbScale
 70
     0
300
1:10
140
1.0
141
10.0
290
     0
  0
SCALE
  5
4E
102
{ACAD_REACTORS
330
47
102
}
330
47
100
AcDbScale
 70
     0
300
1:16
140
1.0
141
16.0
290
     0
  0
SCALE
  5
4F
102
{ACAD_REACTORS
330
47
102
}
330
47
100
AcDbScale
 70
     0
300
1:20
140
1.0
141
20.0
290
     0
  0
SCALE
  5
50
102
{ACAD_REACTORS
330
47
102
}
330
47
100
AcDbScale
 70
     0
300
1:30
140
1.0
141
30.0
290
     0
  0
SCALE
  5
51
102
{ACAD_REACTORS
330
47
102
}
330
47
100
AcDbScale
 70
     0
300
1:40
140
1.0
141
40.0
290
     0
  0
SCALE
  5
52
102
{ACAD_REACTORS
330
47
102
}
330
47
100
AcDbScale
 70
     0
300
1:50
140
1.0
141
50.0
290
     0
  0
SCALE
  5
53
102
{ACAD_REACTORS
330
47
102
}
330
47
100
AcDbScale
 70
     0
300
1:100
140
1.0
141
100.0
290
     0
  0
SCALE
  5
54
102
{ACAD_REACTORS
330
47
102
}
330
47
100
AcDbScale
 70
     0
300
2:1
140
2.0
141
1.0
290
     0
  0
SCALE
  5
55
102
{ACAD_REACTORS
330
47
102
}
330
47
100
AcDbScale
 70
     0
300
4:1
140
4.0
141
1.0
290
     0
  0
SCALE
  5
56
102
{ACAD_REACTORS
330
47
102
}
330
47
100
AcDbScale
 70
     0
300
8:1
140
8.0
141
1.0
290
     0
  0
SCALE
  5
57
102
{ACAD_REACTORS
330
47
102
}
330
47
100
AcDbScale
 70
     0
300
10:1
140
10.0
141
1.0
290
     0
  0
SCALE
  5
58
102
{ACAD_REACTORS
330
47
102
}
330
47
100
AcDbScale
 70
     0
300
100:1
140
100.0
141
1.0
290
     0
  0
SCALE
  5
59
102
{ACAD_REACTORS
330
47
102
}
330
47
100
AcDbScale
 70
     0
300
1/128" = 1'-0"
140
0.0078125
141
12.0
290
     0
  0
SCALE
  5
5A
102
{ACAD_REACTORS
330
47
102
}
330
47
100
AcDbScale
 70
     0
300
1/64" = 1'-0"
140
0.015625
141
12.0
290
     0
  0
SCALE
  5
5B
102
{ACAD_REACTORS
330
47
102
}
330
47
100
AcDbScale
 70
     0
300
1/32" = 1'-0"
140
0.03125
141
12.0
290
     0
  0
SCALE
  5
5C
102
{ACAD_REACTORS
330
47
102
}
330
47
100
AcDbScale
 70
     0
300
1/16" = 1'-0"
140
0.0625
141
12.0
290
     0
  0
SCALE
  5
5D
102
{ACAD_REACTORS
330
47
102
}
330
47
100
AcDbScale
 70
     0
300
3/32" = 1'-0"
140
0.09375
141
12.0
290
     0
  0
SCALE
  5
5E
102
{ACAD_REACTORS
330
47
102
}
330
47
100
AcDbScale
 70
     0
300
1/8" = 1'-0"
140
0.125
141
12.0
290
     0
  0
SCALE
  5
5F
102
{ACAD_REACTORS
330
47
102
}
330
47
100
AcDbScale
 70
     0
300
3/16" = 1'-0"
140
0.1875
141
12.0
290
     0
  0
SCALE
  5
60
102
{ACAD_REACTORS
330
47
102
}
330
47
100
AcDbScale
 70
     0
300
1/4" = 1'-0"
140
0.25
141
12.0
290
     0
  0
SCALE
  5
61
102
{ACAD_REACTORS
330
47
102
}
330
47
100
AcDbScale
 70
     0
300
3/8" = 1'-0"
140
0.375
141
12.0
290
     0
  0
SCALE
  5
62
102
{ACAD_REACTORS
330
47
102
}
330
47
100
AcDbScale
 70
     0
300
1/2" = 1'-0"
140
0.5
141
12.0
290
     0
  0
SCALE
  5
63
102
{ACAD_REACTORS
330
47
102
}
330
47
100
AcDbScale
 70
     0
300
3/4" = 1'-0"
140
0.75
141
12.0
290
     0
  0
SCALE
  5
64
102
{ACAD_REACTORS
330
47
102
}
330
47
100
AcDbScale
 70
     0
300
1" = 1'-0"
140
1.0
141
12.0
290
     0
  0
SCALE
  5
65
102
{ACAD_REACTORS
330
47
102
}
330
47
100
AcDbScale
 70
     0
300
1-1/2" = 1'-0"
140
1.5
141
12.0
290
     0
  0
SCALE
  5
66
102
{ACAD_REACTORS
330
47
102
}
330
47
100
AcDbScale
 70
     0
300
3" = 1'-0"
140
3.0
141
12.0
290
     0
  0
SCALE
  5
67
102
{ACAD_REACTORS
330
47
102
}
330
47
100
AcDbScale
 70
     0
300
6" = 1'-0"
140
6.0
141
12.0
290
     0
  0
SCALE
  5
68
102
{ACAD_REACTORS
330
47
102
}
330
47
100
AcDbScale
 70
     0
300
1'-0" = 1'-0"
140
12.0
141
12.0
290
     0
  0
ENDSEC
  0
EOF
